<?xml version="1.0" encoding="UTF-8" standalone="no"?>
<!-- Created with Inkscape (http://www.inkscape.org/) -->
<svg id="svg4262" xmlns:rdf="http://www.w3.org/1999/02/22-rdf-syntax-ns#" xmlns="http://www.w3.org/2000/svg" height="219" viewBox="0 0 724 219" width="724" version="1.1" xmlns:cc="http://creativecommons.org/ns#" xmlns:dc="http://purl.org/dc/elements/1.1/">
 <metadata id="metadata4268">
  <rdf:RDF>
   <cc:Work rdf:about="">
    <dc:format>image/svg+xml</dc:format>
    <dc:type rdf:resource="http://purl.org/dc/dcmitype/StillImage"/>
    <dc:title/>
   </cc:Work>
  </rdf:RDF>
 </metadata>
 <path id="path4272" fill="#f9f9f9" d="m108.22 213.91c0.33992-0.55 0.81648-1 1.059-1 0.24254 0 0.44098 0.45 0.44098 1s-0.47656 1-1.059 1c-0.58246 0-0.7809-0.45-0.44098-1zm256.5 0.0314c0-0.53273 0.675-0.70959 1.5-0.39301 0.825 0.31659 1.5 0.75246 1.5 0.96862 0 0.21615-0.675 0.39301-1.5 0.39301s-1.5-0.43588-1.5-0.96862zm162-0.60951c0-0.80561 1.1424-1.9852 2.5386-2.6214 1.3962-0.63617 2.355-1.639 2.1306-2.2286-2.6647-7.0006-10.219-29.319-12.645-37.356-1.7071-5.6564-3.516-10.03-4.0199-9.7182-0.50384 0.31139-2.1002-0.46062-3.5475-1.7156l-2.6314-2.2818 2.4537-0.5 2.4537-0.5-1.9351-6.1922c-1.3524-4.3276-2.3441-6.0353-3.2934-5.671-0.96509 0.37034-1.2011-0.0799-0.81531-1.5552 0.52979-2.0259 0.44901-2.0389-3.323-0.53417-2.1263 0.84824-4.8084 2.0106-5.9602 2.583-2.9187 1.4505-8.6111 1.6002-9.0927 0.23902-0.22415-0.63342 1.1267-1.417 3.0721-1.7819 6.5797-1.2344 7.4675-2.8292 8.634-15.511 1.1929-12.968 0.27181-19.87-3.3716-25.265l-2.2362-3.3117 2.0443-1.6637c1.68-1.3672 2.0361-2.7929 1.9982-8-0.0254-3.4849-0.36939-7.5656-0.76449-9.0681-0.75525-2.8721-5.093-5.7682-8.6397-5.7682-1.6758 0-2.0497-0.6384-2.0497-3.5 0-1.925 0.15298-3.5 0.33996-3.5 0.35737 0 16.027 5.4068 18.732 6.4632 1.075 0.41995 1.9836-0.2674 2.8745-2.1746 2.6686-5.713 10.938-31.666 10.379-32.572-0.31962-0.51716-0.0629-1.2606 0.57041-1.652 0.63335-0.39143 1.36-1.8036 1.6148-3.1382 0.48284-2.5288 1.8168-6.3222 4.0181-11.426 0.7116-1.65 2.7402-7.1625 4.5081-12.25 2.958-8.5123 3.4236-9.2488 5.839-9.2347 1.5288 0.009 2.1373 0.32535 1.4574 0.75789-0.84574 0.53802-0.21164 3.6328 2.3019 11.235 1.908 5.7707 3.8158 11.617 4.2394 12.992 0.42364 1.375 1.3342 2.3762 2.0235 2.2249 0.83699-0.18375 1.0389 0.40001 0.608 1.7577-0.8951 2.8202 12.53 43.98 14.351 44.001 0.81042 0.01 1.1202-0.60103 0.7691-1.516-0.74297-1.9361 3.8107-3.8262 7.1807-2.9803 1.3117 0.32921 4.9292-0.17609 8.039-1.1229 3.1098-0.94679 5.8792-1.7858 6.1542-1.8645s1.625-0.64498 3-1.2585c2.5529-1.1391 10.08-4.0545 22.421-8.6845 3.8066-1.4281 7.4949-3.0727 8.196-3.6546 0.70118-0.58193 3.6616-1.6675 6.5788-2.4123 11.32-2.8903 16.289-5.0837 16.624-7.3374 0.22646-1.5258 1.0276-2.153 2.75-2.153 1.3368 0 2.4304 0.39251 2.4304 0.87225 0 0.77835 13.334-3.9638 23.218-8.2572 2.0448-0.88826 4.6989-1.615 5.8979-1.615 1.9727 0 1.8869 0.21397-0.90221 2.25-5.0114 3.6583-15.069 12.2-15.144 12.861-0.0381 0.33624 1.1682 0.39705 2.6808 0.13514 2.731-0.4729 2.7262-0.45811-0.69428 2.1387-3.6764 2.7911-5.5495 3.243-6.5735 1.5861-0.36881-0.59673-2.7336 0.76816-5.6308 3.25-2.7472 2.3534-6.8921 5.6288-9.2108 7.2788-2.9834 2.123-4.116 3.5847-3.8744 5 0.27636 1.619 0.14981 1.7178-0.66424 0.51883-0.86924-1.2803-1.3422-1.2124-3.4872 0.5-4.113 3.2837-14.253 11.203-20.365 15.905-8.9862 6.9129-12.798 10.333-12.2 10.946 0.30275 0.31056 4.3528 0.69196 9 0.84755 4.6473 0.15559 8.6847 0.59384 8.9721 0.97389 0.28741 0.38005 11.312 1.619 24.5 2.7532s31.627 2.75 40.977 3.5907 22.288 1.8081 28.75 2.1498c11.462 0.60602 12.844 1.1009 10.985 3.9357-0.40408 0.61622-4.7847 1.4655-9.7347 1.8872-4.95 0.42178-8.4853 0.95168-7.8562 1.1776 0.62911 0.22588 0.91413 1.2891 0.63337 2.3628-0.45184 1.7278-1.1923 2.0784-4.0272 1.9066-0.4125-0.025-0.60921-0.92499-0.43714-2 0.26126-1.6322-0.27471-1.9546-3.25-1.9546-3.5419 0-3.5629 0.0257-3.5629 4.3834 0 3.6729 0.36469 4.4961 2.25 5.0792 2.08 0.6432 1.9961 0.76968-1.1097 1.6736-1.8478 0.53782-3.6208 0.7167-3.94 0.39751-0.31919-0.31919-0.45823-2.8811-0.30897-5.6932l0.27137-5.1129-8.3314 0.70184c-4.5822 0.38602-20.879 2.0223-36.214 3.6362s-29.573 2.9344-31.639 2.9344c-2.9632 0-3.7269 0.36935-3.6174 1.7495 0.0879 1.1078-0.6864 1.8669-2.1111 2.0696-1.5136 0.21529-2.25-0.19368-2.25-1.2495 0-1.1531-1.0171-1.5696-3.8333-1.5696-5.1271 0-5.7793 0.94925-2.1631 3.1484 1.648 1.0022 2.9964 2.2367 2.9964 2.7433s0.9 0.68573 2 0.39807c1.3238-0.34618 2-0.0307 2 0.93316 0 1.4488 9.5432 9.5947 15.384 13.132 1.6845 1.02 4.0306 2.981 5.2136 4.3577 1.3908 1.6186 2.3935 2.1108 2.8372 1.3928 0.48731-0.78848 1.2546-0.8063 2.6463-0.0615 1.078 0.57692 2.4397 0.75246 3.026 0.39009 1.182-0.73054 9.2766 3.1192 11.049 5.255 1.9877 2.395 0.0415 2.6258-3.671 0.43538-3.6087-2.1291-7.4855-2.8178-7.4855-1.3297 0 1.0584 16.446 13.206 17.879 13.206 0.61662 0 1.1211 0.41759 1.1211 0.92797 0 1.1517 13.939 12.069 15.421 12.079 1.5717 0.01 5.8786 6.6991 5.112 7.9396-0.35815 0.57949-1.2621 1.0536-2.0088 1.0536-0.74671 0-1.5586 0.5625-1.8041 1.25-0.24554 0.6875-0.80528 0.91526-1.2439 0.50613-0.43859-0.40913-0.0502-1.5696 0.86309-2.5787 0.9133-1.0092 1.6605-2.2682 1.6605-2.7979 0-0.52968-5.9625-2.9186-13.25-5.3086-13.472-4.4183-28.018-9.7931-35.25-13.025-2.2-0.98311-6.925-2.7844-10.5-4.0028-3.575-1.2185-7.3645-2.6785-8.421-3.2445-1.5018-0.80457-14.6-5.7986-15.208-5.7986-0.0757 0-0.36458 0.86761-0.64189 1.928-0.78116 2.9872-4.2962 1.9731-3.9646-1.1438 0.24539-2.3067-0.59817-2.8213-11.696-7.1351-6.5783-2.557-12.552-4.6491-13.275-4.6491-0.79172 0-2.5941 4.0822-4.5317 10.264-4.4613 14.233-4.8096 16.312-2.8579 17.061 0.87792 0.33689 1.5962 1.2319 1.5962 1.9889 0 1.9799-3.4626 4.8294-5.1054 4.2014-0.99853-0.38175-2.1799 1.6705-4.1596 7.2259-1.5208 4.2675-2.9355 9.1892-3.1438 10.937-0.20834 1.748-1.5343 5.7022-2.9466 8.787-1.4123 3.0849-2.8459 7.0913-3.1858 8.9031-0.59566 3.1751-0.79582 3.2982-5.5384 3.4063-3.7054 0.0844-4.9204-0.24962-4.9204-1.3527zm31 0.93837c0-0.35186 0.7875-1.2522 1.75-2.0007 1.6667-1.2962 1.6667-1.4109 0-2.4099-0.9625-0.57694-1.75-1.7016-1.75-2.4993 0-0.79767-0.45-1.4503-1-1.4503s-1-0.39752-1-0.88337c0-1.286 4.2133-2.1842 5.448-1.1615 0.63658 0.52729 2.031 0.0781 3.5309-1.1374l2.4788-2.0089-2.7288-1.9878c-3.6134-2.6322-3.4433-3.4644 0.87335-4.2742 4.3693-0.81968 5.4122-0.0646 2.8248 2.0452-1.7141 1.3977-1.7295 1.5089-0.13915 1.0065 3.0965-0.97816 3.3733 2.4445 0.37443 4.629-3.2203 2.3458-3.5845 6.3451-0.66228 7.2725 2.5311 0.80333 2.5711 2.1174 0.0843 2.7677-2.0866 0.54565-4.0843-0.90593-4.0843-2.9677 0-0.715-0.49923-1.3-1.1094-1.3-0.67905 0-0.9509 1.3577-0.7008 3.5 0.36233 3.1036 0.14823 3.5-1.8906 3.5-1.2646 0-2.2992-0.28789-2.2992-0.63976zm72.851-1.4865c1.1753-3.177 3.408-3.7349 2.9832-0.74537-0.18378 1.2931-1.1192 2.5008-2.0787 2.6836-1.4281 0.27218-1.5922-0.0794-0.9045-1.9383zm-584.44-0.77c-1.698-0.4345-3.6105-1.1134-4.25-1.5086-0.86056-0.53186-1.1627-14.859-1.1627-55.134v-54.415l3.2424-1.6767c2.8652-1.4816 5.7304-1.5994 24.628-1.0121 24.915 0.77434 26.821 1.3009 30.234 8.3522 2.046 4.2265 2.149 5.4388 1.5421 18.157-0.36058 7.5562-0.2398 15.059 0.27108 16.84 0.80955 2.822 0.52551 3.7325-2.3396 7.5-5.0007 6.5757-5.8618 8.5261-4.1875 9.4847 2.7101 1.5516 5.5254 7.8761 6.5907 14.805 1.2943 8.4191 0.93737 35.691-0.48071 36.733-0.55 0.40408-2.4359 0.74158-4.191 0.75-1.755 0.008-3.4324 0.40595-3.7275 0.8834-0.63627 1.0295-14.37 0.24185-16.692-0.95731-1.3705-0.70785-1.6836-3.7453-2.1015-20.389-0.27008-10.757-0.80447-19.871-1.1875-20.254-0.38306-0.38306-1.4624-0.21413-2.3985 0.37541-1.4773 0.93035-1.7681 3.6324-2.202 20.465l-0.5 19.393-4.5 0.7613c-8.1457 1.3781-13.455 1.6494-16.587 0.84786zm26.815-77.859c0.33712-7.056 0.08667-10.51-0.9064-12.5-2.5573-5.125-3.3209-3.0174-3.3209 9.1667 0 11.486 0.27968 12.648 3.1307 13.004 0.3469 0.0434 0.84035-4.3086 1.0966-9.671zm43.523 78.061c-0.9625-0.25152-1.7712-0.76182-1.797-1.134-0.0259-0.37218-0.2393-3.1517-0.4743-6.1767-0.61486-7.9145-0.68498-29.857-0.0984-30.806 0.27336-0.4423 0.10853-2.5267-0.36629-4.632-0.51534-2.285-0.47863-4.8396 0.0911-6.3381 0.62852-1.6531 0.55156-5.1417-0.22539-10.217-0.80892-5.2842-0.86635-8.6184-0.1827-10.607 0.66207-1.9255 0.66261-3.8895 0.002-5.8452-0.68722-2.0333-0.61676-5.2847 0.22755-10.5 0.86606-5.3497 0.92054-8.347 0.18666-10.269-0.72317-1.8942-0.71545-2.9129 0.0255-3.3709 0.67038-0.41432 0.82172-2.5787 0.41045-5.8704-0.99353-7.952-0.68218-8.0703 20.814-7.9079 17.353 0.13109 18.103 0.22029 19.836 2.3608 3.2248 3.9824 1.6806 13.187-2.8955 17.259-1.6606 1.4776-2.4859 1.5767-5.2138 0.62576-2.2276-0.77653-3.5636-0.80711-4.2729-0.0978-1.6318 1.6318-2.2145 13.48-0.86424 17.572 1.1298 3.4234 1.4578 3.6447 5.4028 3.6447 6.6702 0 8.6478 2.0181 8.6302 8.8067-0.018 6.9681-1.6801 10.603-5.0103 10.956-1.3612 0.14447-4.2136 0.74035-6.3386 1.3242l-3.8637 1.0615 0.46148 13.176c0.25381 7.2467 0.8031 13.963 1.2206 14.926 0.55355 1.276 1.919 1.75 5.0414 1.75 6.7832 0 8.4457 2.0572 8.7498 10.827 0.35689 10.294 0.5487 10.201-20.687 10.057-9.3824-0.0638-17.846-0.3218-18.809-0.57333zm62.137-0.63348c-7.274-1.3532-13.532-5.261-14.369-8.9722-2.1886-9.7078-3.1086-55.579-1.5083-75.205 1.9673-24.128 1.5996-22.731 7.1376-27.109l4.9211-3.8906-6.265-0.3037c-8.6041-0.4171-9.8038-1.6814-9.8038-10.332 0-6.522-0.11612-6.8551-2.6073-7.4804-3.2856-0.82464-4.115 0.44825-4.9568 7.6077-1.0199 8.6746-2.2287 9.9052-9.6721 9.8468-3.4451-0.02703-7.189-0.62986-8.3198-1.3396l-2.056-1.2905 2.3302-18.854c1.2816-10.37 2.7716-22.679 3.311-27.354 0.53942-4.675 2.0011-15.475 3.2482-24l2.2674-15.5 3.4241-1.1139c5.0233-1.6342 18.16-1.7514 20.274-0.1809 1.8541 1.3777 2.576 4.723 5.2421 24.295 0.89906 6.6 2.0447 13.35 2.5458 15 0.50113 1.65 1.6241 9.525 2.4955 17.5s2.2601 17.798 3.086 21.829c1.5848 7.7349 1.0286 10.038-2.4844 10.286-4.5819 0.32374 8.0523 2.0707 19.872 2.7479 15.677 0.89808 21.603 2.867 25.036 8.3191 2.1967 3.4882 2.2024 3.9422 0.30707 24.537-0.65555 7.1234-1.8544 8.0668-8.0589 6.342-2.0838-0.5793-6.5463-0.77206-9.9309-0.42899-7.3284 0.74285-7.7955 0.22792-8.6374-9.5222-0.49857-5.7739-1.612-8.0464-3.966-8.0944-0.81738-0.0167-0.90972 3.5213-1.1191 42.879-0.14692 27.611 0.31275 31.057 3.7609 28.196 1.2463-1.0344 1.6136-3.2762 1.6321-9.9622 0.0284-10.29 1.2142-16.083 3.6712-17.934 1.3705-1.0325 3.9716-1.2067 10.805-0.72346 12.792 0.90459 12.5 0.38697 12.5 22.19 0 20.839-0.35406 21.893-8.7335 26.008-5.2023 2.5546-6.8918 2.8516-17.267 3.0353-6.325 0.11202-14.476-0.3499-18.113-1.0265zm-19.46-162.42c-0.80419-5.527-3.1067-10.569-4.448-9.7397-1.0655 0.65851-3.9834 9.9404-3.9834 12.671 0 1.4922 0.81842 1.8185 4.5613 1.8185h4.5613l-0.69113-4.75zm94.069 162.81c-13.277-1.3966-18.099-5.1508-19.514-15.191-0.49386-3.5057-0.74864-24.374-0.56617-46.374 0.4104-49.481 0.0179-48.03 14.08-52.066 5.0165-1.4398 8.3741-1.6142 20.484-1.0641 13.904 0.63165 14.622 0.76968 17.935 3.4517 7.096 5.7432 7.1734 6.0035 7.8126 26.267 0.90898 28.814 0.50602 63.715-0.81745 70.801-1.6186 8.6662-4.7279 12.118-12 13.322-8.022 1.3284-19.494 1.6848-27.414 0.8517zm11.849-27.315c0.97313-10.452 0.0254-63.776-1.1545-64.956-1.9845-1.9845-2.6172 6.2966-2.6132 34.206 0.004 26.675 0.66331 37 2.3636 37 0.45222 0 1.0841-2.8125 1.4041-6.25zm41.064 27.359c-1.698-0.4345-3.6105-1.1134-4.25-1.5086-0.86056-0.53186-1.1627-14.859-1.1627-55.134v-54.415l3.238-1.6744c2.8637-1.4809 5.7162-1.5953 24.674-0.98987 31.694 1.0122 31.588 0.92071 31.588 27.113 0 9.35 0.33007 17.508 0.7335 18.128 0.40926 0.62926-0.73641 3.0605-2.5917 5.5-5.1847 6.8171-6.0405 8.782-4.1423 9.5104 2.4964 0.95797 5.3612 7.5747 6.5069 15.029 1.2746 8.2927 0.89732 35.536-0.50634 36.567-0.55 0.40408-2.4359 0.74158-4.191 0.75-1.755 0.008-3.4324 0.40595-3.7275 0.8834-0.63627 1.0295-14.37 0.24185-16.692-0.95731-1.3705-0.70785-1.6836-3.7453-2.1015-20.389-0.27008-10.757-0.80447-19.871-1.1875-20.254-0.38306-0.38306-1.4624-0.21413-2.3985 0.37541-1.4773 0.93035-1.7681 3.6324-2.202 20.465l-0.5 19.393-4.5 0.7613c-8.1457 1.3781-13.455 1.6494-16.587 0.84786zm26.815-77.859c0.33712-7.056 0.0867-10.51-0.9064-12.5-2.5574-5.125-3.3209-3.0174-3.3209 9.1667 0 11.486 0.27968 12.648 3.1307 13.004 0.3469 0.0434 0.84035-4.3086 1.0966-9.671zm118.77 78.15c-9.1852-3.2433-10.364-3.9201-12.882-7.3953l-2.7332-3.7731 0.18334-17.011c0.10083-9.3558 0.49071-17.508 0.86639-18.116 1.096-1.7733 17.806-1.3929 22.571 0.51391l4.0466 1.6191-0.16807 10.939c-0.19147 12.462 0.83964 15.056 4.3016 10.823 1.7928-2.1924 1.9559-3.2998 1.3259-9-0.39511-3.575-0.78449-8.0117-0.86529-9.8592-0.13915-3.1818-0.75427-3.718-11.647-10.151-13.104-7.7392-18.214-12.365-20.62-18.664-1.4554-3.8109-1.5142-5.1495-0.43759-9.9604 0.68408-3.0568 0.94791-7.1349 0.5863-9.0624-0.50914-2.7139 0.16579-5.6294 2.9914-12.922 4.8123-12.42 4.7366-12.383 25.18-12.375 17.998 0.0064 22.395 0.88999 26.913 5.4079 4.5836 4.5836 5.6745 9.7443 4.8263 22.831l-0.71105 10.971-3.3322 1.3923c-4.4162 1.8452-10.769 1.6937-16.84-0.40147-4.0364-1.3931-5.0898-2.2568-5.7396-4.7062-0.43769-1.65-0.54565-4.3547-0.23991-6.0104 0.68514-3.7103-1.0104-8.4896-3.0119-8.4896-2.2286 0-3.9473 6.9645-3.1049 12.582 0.93586 6.2408 3.5485 8.6191 17.414 15.852 15.003 7.8266 14.626 6.9435 14.626 34.239 0 19.963-0.1204 21.336-2.1045 24-4.4342 5.9546-7.3811 6.8051-24.395 7.041-8.525 0.1182-16.175-0.0234-17-0.31474zm204.62-1.1979c-0.27117-0.43876-0.10702-1.4223 0.36477-2.1857 0.70667-1.1434 1.1336-1.1591 2.423-0.089 0.86087 0.71445 1.3186 1.698 1.0172 2.1857-0.68204 1.1036-3.1424 1.1611-3.805 0.0889zm-286.44-1.484c-0.91978-1.1083-1.796-36.815-1.447-58.968 0.0498-3.1625 0.0367-7.4375-0.0291-9.5-0.0659-2.0625-0.0586-8.925 0.016-15.25s0.0555-14.266-0.0426-17.646c-0.25076-8.6414 1.1374-9.9524 11.511-10.871 5.1827-0.45877 7.5671-1.0235 6.6839-1.5829-0.75514-0.47834-2.9184-0.87661-4.8073-0.88503-5.2756-0.02352-11.627-3.5415-13.185-7.3034-1.0261-2.4765-1.3113-11.118-1.2457-37.74 0.0954-38.726 0.16691-39.157 7.0714-42.587 3.1676-1.5736 6.028-1.8787 17.324-1.8479 14.623 0.04 16.045 0.48364 20.508 6.4001 2.1499 2.8501 2.1898 3.5763 2.4517 44.587 0.20627 32.302-1.0151 36.525-11.08 38.306l-4.409 0.78012 6.566 0.64006c3.6113 0.35203 9.1347 1.6011 12.274 2.7757 5.1148 1.9137 5.9827 2.673 8.3492 7.3048l2.6411 5.1691-0.29684 25c-0.16327 13.75-0.32527 26.8-0.36001 29-0.0348 2.2 0.30315 9.175 0.75087 15.5 0.92888 13.122 0.029 18.119-4.1594 23.097-5.226 6.2107-8.2668 6.8567-32.393 6.8812-16.39 0.0166-21.885-0.28846-22.691-1.2598zm29.375-20.484c0.88461-0.61553 1.9478-37.822 1.4498-50.735-0.0636-1.65-0.0884-5.7-0.055-9 0.0771-7.6141-0.60172-10.5-2.4697-10.5-1.2801 0-1.481 4.8141-1.481 35.5 0 19.525 0.3375 35.493 0.75 35.485s1.2251-0.34592 1.8059-0.75zm-7.1-113.05c0.92816-2.9244 0.2796-53.228-0.69401-53.83-0.48586-0.30027-1.029-0.38839-1.207-0.19582-0.96695 1.0461-1.6318 27.967-1.0094 40.874 0.6715 13.925 1.4904 17.626 2.9104 13.152zm274.25 133.19c-0.79893-0.79893 0.10419-2.3605 1.3652-2.3605 0.51754 0 0.94098 0.675 0.94098 1.5 0 1.5464-1.18 1.9867-2.3062 0.86052zm-9.7505-5.2546c0.57723-1.0786 0.77798-2.6686 0.44611-3.5335-0.33188-0.86484-0.12279-1.5724 0.46463-1.5724 0.58741 0 1.8731-0.83521 2.857-1.856 0.98393-1.0208 3.2989-2.1441 5.1444-2.4961 2.8225-0.5384 3.257-0.38327 2.7351 0.97654-0.47654 1.2418-0.15325 1.4945 1.3945 1.0897 2.5685-0.67168 2.6244 0.88928 0.0806 2.2507-2.7529 1.4733-4.0657 1.2836-4.0657-0.58726 0-1.3347-0.26824-1.3998-1.5123-0.36733-1.1185 0.92827-1.2281 1.5976-0.42101 2.5701 1.7994 2.1682-0.42127 4.6914-4.497 5.1095-3.3866 0.34743-3.5933 0.22282-2.6263-1.5839zm-147.94-2.1059c0-1.65 0.45-3 1-3s1 1.35 1 3-0.45 3-1 3-1-1.35-1-3zm118.95 0.36754c-0.44587-1.1728-2.2106-3.1293-3.9216-4.3476-2.5358-1.8056-2.8886-2.4829-1.9088-3.6636 1.0195-1.2284 1.7537-0.9098 4.8336 2.0976 2.5301 2.4706 4.5438 3.5461 6.6393 3.5461 2.8097 0 5.4078 1.491 5.4078 3.1035 0 0.38691-2.304 0.85941-5.1199 1.05-4.4746 0.30284-5.2221 0.0778-5.9306-1.786zm-43.95-6.2323c0-4.9944 0.65154-5.4528 4.113-2.8936 3.599 2.6609 3.7187 4.1839 0.26049 3.3159-2.0588-0.51671-2.5047-0.34188-2.0631 0.80883 0.30983 0.80743-0.0833 1.7162-0.87352 2.0194-1.0939 0.41976-1.4369-0.35617-1.4369-3.2506zm22.706 1.0919c-1.077-1.1901-1.306-2.2556-0.69663-3.2416 1.061-1.7168 2.422-0.625 3.446 2.7645 0.81441 2.6956-0.53052 2.929-2.7494 0.47716zm-572.21-5.23c0.33992-0.55 0.81648-1 1.059-1 0.24254 0 0.44098 0.45 0.44098 1s-0.47656 1-1.059 1c-0.58246 0-0.7809-0.45-0.44098-1zm578 0c0.33992-0.55 1.2665-1 2.059-1 0.79254 0 1.441 0.45 1.441 1s-0.92656 1-2.059 1c-1.1325 0-1.7809-0.45-1.441-1zm24 0c0.33992-0.55 0.81648-1 1.059-1 0.24254 0 0.44098 0.45 0.44098 1s-0.47656 1-1.059 1c-0.58246 0-0.7809-0.45-0.44098-1zm-68.5-1c0-0.55 0.70156-1 1.559-1 0.85746 0 1.2809 0.45 0.94098 1s-1.0415 1-1.559 1c-0.51754 0-0.94098-0.45-0.94098-1zm11.677-1.602c0.29151-0.75965-0.0792-1.5418-0.82374-1.738-0.74456-0.19625-2.7746-0.82024-4.5112-1.3866-2.5299-0.82514-3.4726-0.71472-4.7428 0.55553-1.1528 1.1528-1.8854 1.2853-2.6852 0.48558-1.2414-1.2414-0.0845-4.0986 2.542-6.2784 1.4181-1.1769 1.412-1.4118-0.0642-2.4912-1.408-1.0295-1.4448-1.4881-0.27054-3.3684 0.74761-1.1971 1.6959-2.1766 2.1073-2.1766 1.2757 0 4.7709 3.3812 4.7709 4.6152 0 0.64393 0.72568 1.4492 1.6126 1.7896 1.283 0.49234 1.3676 0.91406 0.41391 2.0632-1.3503 1.627-0.58579 3.532 1.4175 3.532 1.0571 0 4.5583 4.0081 4.5553 5.2148-0.00038 0.15685-1.0922 0.34801-2.4263 0.4248-1.6857 0.097-2.2639-0.28169-1.8955-1.2416zm-4.6775-8.398c0-0.55-0.19844-1-0.44098-1s-0.7191 0.45-1.059 1c-0.33992 0.55-0.14148 1 0.44098 1s1.059-0.45 1.059-1zm48 9.059c0-0.51754 0.45-1.2191 1-1.559 0.55-0.33992 1 0.0835 1 0.94098 0 0.85746-0.45 1.559-1 1.559s-1-0.42344-1-0.94098zm-600.14-3.21c-3.1918-3.4168-3.2941-5.3563-0.28244-5.3563 1.2263 0 2.0318 0.81042 2.2362 2.25 0.23128 1.6285 0.99088 2.25 2.75 2.25 2.665 0 3.0819 0.94859 1.2304 2.8-1.8005 1.8005-2.7171 1.5002-5.9342-1.9437zm538.32 0.0812c0.24063-0.72188 1.0281-1.5094 1.75-1.75 0.75-0.25 1.125 0.125 0.875 0.875-0.24063 0.72187-1.0281 1.5094-1.75 1.75-0.75 0.25-1.125-0.125-0.875-0.875zm25.812 0.10359c0-1.5299 3.4246-7.9894 4.25-8.0165 1.1543-0.0379 0.89005 3.2751-0.5 6.2682-1.1942 2.5713-3.75 3.7629-3.75 1.7483zm96.656-1.7186c-1.5819-1.5819 2.7819-4.3225 6.8826-4.3225 3.5343 0 4.3242-0.3665 4.8123-2.2328 0.46695-1.7856 0.83407-1.9826 1.8333-0.98334 0.99923 0.99923 0.53102 1.9678-2.3382 4.837-3.1608 3.1608-3.8485 3.448-5.7806 2.4139-1.5545-0.83196-2.5651-0.86484-3.4711-0.11294-0.70295 0.5834-1.5752 0.76364-1.9383 0.40055zm-529.66-3.8225c0-0.825 0.675-1.5 1.5-1.5s1.5 0.675 1.5 1.5-0.675 1.5-1.5 1.5-1.5-0.675-1.5-1.5zm348 0c0-0.825 0.675-1.5 1.5-1.5s1.5 0.675 1.5 1.5-0.675 1.5-1.5 1.5-1.5-0.675-1.5-1.5zm4.6667 0.83333c-1.0374-1.0374-0.78384-4.3333 0.33333-4.3333 0.55 0 1 1.125 1 2.5 0 2.6181-0.23099 2.9357-1.3333 1.8333zm95.833-2.3333c-0.33992-0.55 0.11008-1 1-1s1.3399 0.45 1 1c-0.33992 0.55-0.78992 1-1 1s-0.66008-0.45-1-1zm-454.75-0.68933c-2.3552-0.61546-2.2318-2.3107 0.16821-2.3107 2.6127 0 5.0818 1.0237 5.0818 2.107 0 0.92057-2.1827 1.0052-5.25 0.20368zm414.25-1.2516c0-1.7427 1.6919-2.0051 3.6027-0.55879 1.7977 1.3608 1.753 1.4378-0.85268 1.468-1.5125 0.0175-2.75-0.39164-2.75-0.90918zm-533.18-0.74c0.72188-0.28887 1.5844-0.25335 1.9167 0.0789 0.33229 0.33229-0.25833 0.56864-1.3125 0.52522-1.1649-0.048-1.4019-0.28494-0.60417-0.60416zm560.69-1.0669c1.379-3.3607 0.97537-4.675-1.8621-6.0638-2.6782-1.3109-2.7512-1.5022-1.1606-3.0425 1.5782-1.5283 1.8049-1.4858 3.2299 0.60631 0.99254 1.4571 2.5468 2.25 4.4106 2.25 1.8916 0 2.878 0.51413 2.878 1.5 0 0.825-0.62622 1.5-1.3916 1.5s-1.674 1.125-2.019 2.5c-0.41867 1.6681-1.3223 2.5-2.7154 2.5-1.5954 0-1.9186-0.41282-1.3699-1.75zm112.04 0.8191c-0.31644-0.512-0.11799-1.2136 0.44098-1.559 0.55897-0.34546 1.0163 0.0734 1.0163 0.9309 0 1.7565-0.60006 2.0152-1.4573 0.62812zm-193.53-1.2601c-0.008-0.93004 0.43469-1.9691 0.98469-2.309 1.2656-0.78218 1.2656 0.54163 0 2.5-0.8354 1.2927-0.97149 1.2663-0.98469-0.19098zm-361.94-1.3924c0.048-1.165 0.28494-1.4019 0.60416-0.60417 0.28887 0.72187 0.25335 1.5844-0.0789 1.9167-0.3323 0.33229-0.56864-0.25834-0.52522-1.3125zm465.5 0.71754c-0.43077-0.697-0.51316-1.5373-0.18309-1.8674 0.89497-0.89496 1.8708 0.4213 1.3874 1.8714-0.33872 1.0162-0.57427 1.0154-1.2043-0.004zm62.111 0.22631c-1.0426-1.0426 0.27794-2.3605 2.3652-2.3605 1.0675 0 1.941-0.36 1.941-0.8 0-1.596-2.4562-3.2-4.9-3.2-1.478 0-2.1116-0.35538-1.55-0.86929 1.4301-1.3086 8.6682-0.14177 8.112 1.3077-0.25434 0.6628 0.42686 1.7605 1.5138 2.4393 1.5841 0.9893 1.7384 1.5207 0.77778 2.6782-1.1975 1.4429-7.0512 2.0131-8.2597 0.80457zm13.806-0.36052c-0.33992-0.55-0.14148-1 0.44098-1s1.059 0.45 1.059 1-0.19844 1-0.44098 1-0.7191-0.45-1.059-1zm-175-1c-0.33992-0.55-0.14148-1 0.44098-1s1.059 0.45 1.059 1-0.19844 1-0.44098 1-0.7191-0.45-1.059-1zm97.5-3.5c0-0.825 0.7301-1.5 1.6224-1.5 1.3288 0 1.3971 0.27149 0.37756 1.5-0.68469 0.825-1.4148 1.5-1.6224 1.5-0.20766 0-0.37756-0.675-0.37756-1.5zm81 0.5c0-0.55-0.70156-1-1.559-1-0.85746 0-1.2809-0.45-0.94098-1 1.0206-1.6514 3.3591-1.1318 4.5 1 0.85431 1.5963 0.76049 2-0.46482 2-0.84435 0-1.5352-0.45-1.5352-1zm10.235 0.30229c-3.366-0.66178-1.6508-2.3023 2.4072-2.3023 2.3748 0 3.3886 0.40772 3.1081 1.25-0.46473 1.3958-2.1413 1.7156-5.5153 1.0523zm8.4315-2.969c-1.1212-1.1212-0.7439-2.3333 0.72634-2.3333 0.76616 0 1.652 0.675 1.9686 1.5 0.57696 1.5036-1.4103 2.118-2.695 0.83333zm-694-1.78c-0.34022-0.8866-0.06546-1.5516 0.64107-1.5516 0.68006 0 2.8921-1.125 4.9156-2.5 5.8089-3.9472 7.8962-2.8741 3.5352 1.8176-2.8893 3.1084-8.2508 4.4258-9.0918 2.234zm491.57-1.2409c-0.85757-1.5255-0.90653-2.3897-0.16149-2.8501 1.5316-0.94658 2.1513 0.0135 1.745 2.7036l-0.35278 2.3359-1.2307-2.1893zm4.8686 0.3025c-0.81795-0.98557-0.86038-1.6395-0.13544-2.0875 0.5806-0.35883 1.333 0.0705 1.6721 0.9541 0.84418 2.1999-0.0836 2.8842-1.5367 1.1334zm150.29-4.0653c-0.68798-1.7929 0.42703-3.7852 1.6837-3.0085 0.50904 0.3146 1.3938 1.4469 1.9661 2.5163 0.87459 1.6342 0.71095 1.9443-1.026 1.9443-1.1366 0-2.3173-0.65345-2.6238-1.4521zm-63.921-1.6144c-0.36253-0.58659-0.41903-1.3066-0.12555-1.6001 0.71632-0.71631 2.6667 0.54583 2.6667 1.7257 0 1.278-1.7264 1.1927-2.5411-0.12555zm80.541 0.18154c0-0.84435 4.3435-4.115 5.4648-4.115 1.3899 0 0.31441 3.0478-1.3991 3.9648-2.3709 1.2689-4.0657 1.3315-4.0657 0.15019zm-648.36-0.8c-1.4748-1.4748-0.4861-3.3102 1.7831-3.3102 1.4702 0 2.6069-0.68974 2.884-1.75 0.25153-0.9625 0.50952-0.16065 0.57332 1.7819 0.09937 3.0255-0.22184 3.5599-2.2404 3.7269-1.296 0.10726-2.646-0.0946-3-0.44856zm637.54-0.37275c0.24063-0.72188 1.0281-1.5094 1.75-1.75 0.75-0.25 1.125 0.125 0.875 0.875-0.24063 0.72187-1.0281 1.5094-1.75 1.75-0.75 0.25-1.125-0.125-0.875-0.875zm-647.59-1.79c-0.34605-0.55992-0.1419-1.3192 0.45366-1.6873 1.5375-0.95021 2.5295 0.35135 1.246 1.6348-0.71818 0.71818-1.2775 0.73543-1.6996 0.0524zm539.53-1.9919c-1.4561-2.6419-1.1883-3.4394 0.75212-2.2402 0.72569 0.4485 1.143 1.6615 0.9273 2.6956-0.35556 1.7048-0.51221 1.6623-1.6794-0.45548zm-348.52-0.74614c-0.93873-2.4463-0.7352-2.7695 0.89301-1.4182 1.6624 1.3796 1.9902 3 0.60699 3-0.49116 0-1.1662-0.7118-1.5-1.5818zm369.59 0.38179c-1.6332-1.6332-1.5082-2.8 0.3-2.8 0.83333 0 1.5 0.88889 1.5 2 0 2.331-0.18621 2.4138-1.8 0.8zm110.8 0.30699c0-1.2314 2.5783-2.107 6.2042-2.107 2.5894 0 2.8559 0.2226 1.7958 1.5-1.3278 1.6-8 2.1062-8 0.60699zm-31-1.107c0-0.55 0.70156-1 1.559-1 0.85746 0 1.2809 0.45 0.94098 1s-1.0415 1-1.559 1c-0.51754 0-0.94098-0.45-0.94098-1zm-159-1c0-0.55 0.675-1 1.5-1s1.5 0.45 1.5 1-0.675 1-1.5 1-1.5-0.45-1.5-1zm-2.4166-3.6431c-0.75126-1.9578-0.80527-1.9024 2.6666-2.7352 3.175-0.76168 3.5493 0.34501 0.92126 2.7234-2.2844 2.0674-2.7984 2.0691-3.5878 0.0119zm-478.57-0.35c0-0.55 0.45-1 1-1s1 0.45 1 1-0.45 1-1 1-1-0.45-1-1zm639-4.8097c0-0.53699 0.7126-1.2498 1.5836-1.584 0.97391-0.37373 1.4311-0.15024 1.1875 0.58051-0.49828 1.4948-2.7711 2.3179-2.7711 1.0035zm-24.5-3.1903c0.33992-0.55 0.81648-1 1.059-1 0.24254 0 0.44098 0.45 0.44098 1s-0.47656 1-1.059 1c-0.58246 0-0.7809-0.45-0.44098-1zm54.5-2.059c0-0.58246 0.45-0.7809 1-0.44098s1 0.81648 1 1.059c0 0.24254-0.45 0.44098-1 0.44098s-1-0.47656-1-1.059zm-5.5-0.94098c-0.33992-0.55 0.30852-1 1.441-1s2.059 0.45 2.059 1-0.64844 1-1.441 1c-0.79254 0-1.7191-0.45-2.059-1zm-4.9034-0.84377c-0.34605-0.55992-0.1419-1.3192 0.45366-1.6873 1.5375-0.95021 2.5295 0.35135 1.246 1.6348-0.71818 0.71818-1.2775 0.73543-1.6996 0.0524zm-25.597-2.0012c0-1.3961 3.5382-4.155 5.3287-4.155 2.6122 0 1.9593 2.94-0.89384 4.0248-3.1509 1.198-4.4349 1.2357-4.4349 0.13024zm-638.46-3.3392c0.93611-3.0426 1.306-3.3738 2.4687-2.2111 0.62847 0.62847 0.23843 1.5989-1.1049 2.7491-2.0251 1.7339-2.0587 1.7207-1.3638-0.53802zm643.71-4.3569c-2.1818-1.5282-3.1018-4.4589-1.3998-4.4589 1.3465 0 4.3959 3.7773 4.0024 4.9578-0.22819 0.68456-1.1711 0.50384-2.6026-0.49884zm-628.75-9.46c-0.33992-0.55-0.14148-1 0.44098-1s1.059 0.45 1.059 1-0.19844 1-0.44098 1-0.7191-0.45-1.059-1zm656-1c-0.33992-0.55-0.14148-1 0.44098-1s1.059 0.45 1.059 1-0.19844 1-0.44098 1-0.7191-0.45-1.059-1zm-660.5-5.04c-3.575-0.43222-9.5375-1.0861-13.25-1.4531-5.5741-0.55099-6.75-0.97943-6.75-2.4593 0-1.598 1.4353-1.8667 13.25-2.4808 7.2875-0.37878 14.038-0.91685 15-1.1957 1.4852-0.43032 1.75 0.18398 1.75 4.0604 0 5.1099 0.78597 4.8326-10 3.5285zm682.5-9.55c1.2604-0.95895 2-2.6955 2-4.6961 0-2.225 0.52339-3.2778 1.75-3.5199 2.7963-0.55195 2.4078 6.2271-0.47251 8.2445-3.0222 2.1168-6.0624 2.0903-3.2775-0.0286zm-45.975-2.3745c-0.84806-1.3722-0.0973-2.4024 1.3806-1.8944 0.60526 0.20803 0.68263 0.91401 0.1875 1.7109-0.62501 1.006-1.0304 1.0534-1.5681 0.18347zm-618.76-5.155c-0.936-0.524-2.083-2.625-2.55-4.669-0.669-2.925-0.754-56.748-0.113-70.717 0.07577-1.65-0.0089-4.8659-0.18811-7.1465-0.55991-7.1243 0.0318-7.3537 18.963-7.352 18.627 0.002 21.806 0.82982 25.726 6.7013 1.9388 2.9037 2.1198 4.4008 1.9384 16.028-0.16211 10.387-0.53918 13.343-1.9836 15.547-0.98089 1.497-2.1817 2.7219-2.6684 2.7219-1.6876 0-0.87196 2.4042 1.7408 5.1313 2.5273 2.6379 2.6406 3.2589 3.0206 16.555 0.58992 20.642-0.66372 23.581-11.466 26.882-5.3546 1.6361-29.639 1.8741-32.42 0.31779zm21.633-17.468c0.33384-0.86998 0.60699-5.7934 0.60699-10.941 0-8.7582-0.90759-12.054-2.5761-9.3542-0.90865 1.4702-1.5642 18.348-0.79087 20.363 0.75287 1.9619 1.9927 1.9314 2.7599-0.068zm0.4008-48.248c0.40787-9.9535-2.3245-9.6444-2.9172 0.32999-0.32638 5.4934 0.08737 7.6786 1.3734 7.2533 0.80637-0.26663 1.3543-2.958 1.5438-7.5833zm131.35 65.356c-9.6112-2.3111-9.9735-3.1171-11.247-25.021-1.1059-19.021 0.0838-51.688 2.073-56.92 0.45369-1.1933 2.6464-3.4319 4.8727-4.9747 4.0313-2.7937 4.104-2.8037 17.854-2.4579 12.243 0.30786 14.217 0.60291 17.438 2.606 4.8897 3.0407 6.3354 6.8181 5.3667 14.022-2.1724 16.155-1.6854 14.745-4.999 14.475-1.65-0.13457-5.6835-0.26335-8.9634-0.28619-6.6256-0.0461-7.4916-0.73221-7.535-5.9691-0.0414-5.0075-1.0208-8-2.6183-8-1.5454 0-1.5755 0.58434-1.7702 34.332-0.0912 15.806 0.18809 21.088 1.1575 21.892 2.1441 1.7794 2.705 0.0178 3.3309-10.462 0.75307-12.608 1.3177-13.215 11.398-12.257 3.85 0.36591 7.5625 1.1321 8.25 1.7026 0.89774 0.74499 1.2437 5.1595 1.2278 15.665-0.0247 16.269-0.37837 17.318-6.9778 20.711-4.4166 2.2706-21.073 2.8146-28.859 0.94258zm45.947 0.08065c-0.82799-0.99767-1.2177-13.611-1.3724-44.416-0.11884-23.663 0.0261-43.265 0.322-43.561 0.29594-0.29617 3.9425-0.83499 8.1034-1.1974 8.6401-0.75248 12.089 0.38253 11.81 3.887-0.40886 5.1475 0.10339 17.959 0.69443 17.368 0.35547-0.35547 1.824-5.043 3.2634-10.417l2.6171-9.7704 8.3061-0.89483c11.181-1.2046 11.476-0.89064 9.7437 10.395-0.71744 4.675-1.7735 9.625-2.3469 11-0.57335 1.375-2.0206 5.9863-3.2161 10.247-2.4876 8.8663-2.8085 6.4466 4.6716 35.216 6.3977 24.607 6.6618 23.536-5.8036 23.536-7.0513 0-7.9096-0.22033-9.6936-2.4883-1.0765-1.3686-2.2667-4.6311-2.6448-7.25-0.37813-2.6189-1.3795-7.8582-2.2253-11.643-2.0758-9.2888-3.2831-6.9462-3.3025 6.4086-0.0205 14.12-0.61529 14.973-10.45 14.973-5.0384 0-7.6814-0.43441-8.4772-1.3933zm101.41 0.66973c-4.37-1.0741-4.5-1.6926-4.5-21.399v-18.878h-2.393c-2.9086 0-3.7799 1.9103-2.657 5.8256 0.47788 1.6663 0.41273 6.7822-0.15038 11.807-0.5465 4.8769-0.76704 11.461-0.49011 14.632 0.42697 4.8883 0.22365 5.9146-1.3372 6.75-2.7487 1.4711-16.508 1.2489-17.783-0.28713-0.93952-1.1321-1.7903-51.349-1.3288-78.431l0.13979-8.203 3.75-1.0414c5.4683-1.5186 12.475-1.2836 15.027 0.50412 2.1164 1.4824 2.2225 2.224 2.2225 15.531 0 11.673 0.25415 14.072 1.5431 14.567 0.84872 0.32568 1.8096 0.32569 2.1353 0.00002 0.32567-0.32567 0.81256-7.0188 1.082-14.874 0.26942-7.8548 0.93865-14.844 1.4872-15.531 1.0912-1.3677 15.403-1.7665 17.393-0.48469 0.95162 0.613 1.7906 5.1349 2.4555 13.235 0.0677 0.825 0.0482 10.5-0.0435 21.5-0.0916 11-0.13748 26.053-0.10189 33.451 0.081 16.836-0.44848 19.908-3.6406 21.122-2.5214 0.95862-9.3011 1.0667-12.81 0.20418zm118.85-0.52091c-1.1094-1.795-1.2412-5.4778-1.5609-43.601-0.1584-18.89 0.0711-34.567 0.50999-34.839 0.43888-0.27118 0.50146-2.4703 0.13907-4.887-0.62391-4.1605-0.50693-4.4533 2.202-5.5121 3.7651-1.4716 27.003-0.4583 29.084 1.2681 2.3488 1.9494 1.2213 11.632-1.6227 13.935-1.7979 1.4559-2.6629 1.5805-4.6582 0.67143-1.3476-0.61404-2.7489-0.81781-3.1139-0.45283-0.99112 0.99112-1.6624 11.192-0.9289 14.115 0.54842 2.1851 1.1935 2.5462 4.5486 2.5462 5.1007 0 7.0524 2.0424 7.0524 7.3803 0 5.5194-1.7734 7.7743-7.1301 9.066l-4.3699 1.0537-0.28405 9.5708c-0.3642 12.271 0.35351 14.314 5.0862 14.479 5.4148 0.18804 6.6978 1.7919 6.6978 8.3728 0 3.1227-0.54 6.2176-1.2 6.8776-1.7182 1.7182-29.387 1.6778-30.451-0.04452zm-368.71-1.596c-1.509-1.668-1.641-5.886-1.405-44.75l0.26086-42.909h9.8325c8.6747 0 10.006 0.2355 11.306 2 1.016 1.3792 1.2621 3.0863 0.79296 5.5-0.99643 5.126-0.72326 59.979 0.31623 63.5 0.77588 2.6282 1.4351 3.062 5.3191 3.5l4.4334 0.5 0.79047 6.416c0.59735 4.8485 0.4752 6.616-0.5 7.2347-0.70976 0.45029-7.6332 0.82561-15.385 0.83403-12.43 0.0135-14.292-0.20209-15.761-1.8254zm329.04 0.04675c-1.4524-1.6049-1.6005-6.3218-1.405-44.75l0.21855-42.956 9.213-0.28704c8.2826-0.25805 9.4282-0.0719 11.344 1.8437 1.7438 1.7438 2.0003 2.7947 1.4125 5.787-1.0238 5.2118-0.78406 60.058 0.27831 63.656 0.77588 2.6282 1.4351 3.062 5.3191 3.5l4.4334 0.5 0.79047 6.416c0.59735 4.8485 0.4752 6.616-0.5 7.2347-0.70976 0.45029-7.6332 0.82561-15.385 0.83403-12.298 0.01336-14.302-0.21346-15.719-1.7787zm256.31 0.17154c0-1.3288 0.27149-1.3971 1.5-0.37756 0.825 0.68469 1.5 1.4148 1.5 1.6224 0 0.20766-0.675 0.37756-1.5 0.37756s-1.5-0.7301-1.5-1.6224zm-68.5-1.3776c0.33992-0.55 1.2665-1 2.059-1 0.79254 0 1.441 0.45 1.441 1s-0.92656 1-2.059 1c-1.1325 0-1.7809-0.45-1.441-1zm10.5 0c0-0.55 0.70156-1 1.559-1 0.85746 0 1.2809 0.45 0.94098 1s-1.0415 1-1.559 1c-0.51754 0-0.94098-0.45-0.94098-1zm-592.64-2.5c-0.31658-0.825-1.1543-1.5-1.8616-1.5-1.8332 0-2.8165-3.1822-1.2839-4.1547 1.9189-1.2176 2.7839-1.0168 2.7839 0.64626 0 0.82034 0.9 2.0536 2 2.7405 1.1 0.68696 2 1.8158 2 2.5085 0 1.7696-2.9416 1.5751-3.6384-0.24055zm647.23-1.142c-0.52667-1.3725-0.38034-1.4343 0.89301-0.37756 1.7352 1.4401 1.9158 2.019 0.62988 2.019-0.49116 0-1.1765-0.73865-1.5229-1.6414zm-50.584-3.8586c0-0.825 0.7301-1.5 1.6224-1.5 1.3288 0 1.3971 0.27149 0.37756 1.5-0.68469 0.825-1.4148 1.5-1.6224 1.5-0.20766 0-0.37756-0.675-0.37756-1.5zm35.5-7.5c-0.33992-0.55-0.31023-1.498 0.066-2.1068 0.67212-1.0875 2.3824 0.57899 2.4187 2.3568 0.0224 1.0961-1.7638 0.91641-2.4847-0.25zm54.5-0.94099c0-0.51754 0.45-1.2191 1-1.559 0.55-0.33992 1 0.0835 1 0.94098 0 0.85746-0.45 1.559-1 1.559s-1-0.42345-1-0.94099zm-79.812-1.1215c0.24063-0.72188 1.0281-1.5094 1.75-1.75 0.75-0.25 1.125 0.125 0.875 0.875-0.24063 0.72187-1.0281 1.5094-1.75 1.75-0.75 0.25-1.125-0.125-0.875-0.875zm-336.01-4.6046c0.48655-2.5088 2.8233-2.8532 2.8233-0.4162 0 1.2283-0.64569 2.0833-1.5733 2.0833-0.93124 0-1.4414-0.68037-1.25-1.6671zm348 0c0.48655-2.5088 2.8233-2.8532 2.8233-0.4162 0 1.2283-0.64569 2.0833-1.5733 2.0833-0.93124 0-1.4414-0.68037-1.25-1.6671zm-84.51-1.9995c-1.2147-1.2147-0.69095-2.2799 0.83333-1.695 0.825 0.31658 1.5 0.97746 1.5 1.4686 0 1.0484-1.3776 1.182-2.3333 0.22634zm-59.667-1.3333c0-0.55 0.45-1 1-1s1 0.45 1 1-0.45 1-1 1-1-0.45-1-1zm-483-2.918c0-2.0515 1.2967-4.0818 2.607-4.0818 0.81921 0 1.393 1.0298 1.393 2.5 0 1.8333-0.53333 2.5-2 2.5-1.1 0-2-0.4132-2-0.91822zm484.62 0.2065c-1.0353-1.0353-0.69568-2.4521 0.42218-1.7612 0.5741 0.35481 1.71 0.0922 2.5242-0.58348 0.8142-0.67573 1.6504-1.052 1.8583-0.83609 0.64427 0.66917-4.1454 3.84-4.8046 3.1808zm64.556-11.798c-1.5451-3.3911-1.5209-3.4899 0.85403-3.4899 2.6132 0 3.6677 2.7295 1.7827 4.6145-1.2792 1.2792-1.6048 1.1403-2.6367-1.1246zm29.296-0.53356c-0.32508-0.52598-0.31293-1.4063 0.027-1.9563 0.92405-1.4952 3.5-1.2059 3.5 0.39301 0 1.6955-2.7044 2.8943-3.527 1.5633zm13.256 0.43951c-1.4688-1.4688-0.7033-3.9673 1.2154-3.9673 1.196 0 1.6327 0.39869 1.1343 1.0357-0.44569 0.56965-0.99263 1.6263-1.2154 2.3482-0.22281 0.72187-0.73323 0.98437-1.1343 0.58333zm-589.12-7.147c1.0836-4.517 1.7714-4.5165 2.9055 0.002 0.59039 2.3523 0.38337 2.748-1.4378 2.748-1.8141 0-2.0303-0.40502-1.4677-2.75zm552.55 0.61355c0.3108-2.1604 0.74643-2.2859 7.5798-2.1831 11.7 0.17598 11.966 0.21031 10.25 1.3196-0.825 0.53315-4.3421 0.97626-7.8157 0.98468-3.4737 0.008-7.222 0.50036-8.3298 1.0932-1.772 0.94835-1.9744 0.80243-1.6842-1.2143zm31.387-0.11355c0.9099-2.9601 1.0831-3.1021 2.9227-2.3962 1.3097 0.50259 1.3592 0.93163 0.30258 2.6235-1.7722 2.8377-4.1166 2.6725-3.2253-0.2273zm28.443-1.75c0-0.55 0.45-1 1-1s1 0.45 1 1-0.45 1-1 1-1-0.45-1-1zm-11-3c0-0.55 0.45-1 1-1s1 0.45 1 1-0.45 1-1 1-1-0.45-1-1zm-6-3.5c-1.0391-1.252-0.89917-1.5 0.84617-1.5 1.4479 0 1.914 0.46138 1.5155 1.5-0.31659 0.825-0.69736 1.5-0.84617 1.5-0.14882 0-0.83077-0.675-1.5155-1.5zm-607-1.5c0-0.55 0.45-1 1-1s1 0.45 1 1-0.45 1-1 1-1-0.45-1-1zm280-0.87868c0-1.156 5.8797-3.575 6.6987-2.7559 0.34903 0.34904-0.0603 0.63461-0.90962 0.63461s-2.1044 0.675-2.7891 1.5c-1.3737 1.6552-3 1.992-3 0.62132zm348 0.0392c0-0.76816 4.3009-3.1605 5.6819-3.1605 0.32329 0-0.55636 0.9-1.9548 2-2.7549 2.167-3.7271 2.4697-3.7271 1.1605zm-77.417-1.0263c-0.43077-0.69701-0.51316-1.5373-0.18309-1.8674 0.89497-0.89496 1.8708 0.42131 1.3874 1.8714-0.33872 1.0162-0.57427 1.0154-1.2043-0.004zm53.633-1.9795c-1.5712-0.99696-0.6443-3.7765 1.5387-4.6142 0.88012-0.33774 2.2275 0.0132 2.9941 0.77982 1.1918 1.1918 1.1558 1.632-0.24897 3.0367-1.849 1.849-2.4504 1.961-4.2839 0.7976zm-606.83-4.725c0.33624-0.87622 0.61134-1.7813 0.61134-2.0113 0-0.23002 0.45-0.41821 1-0.41821 1.629 0 1.1382 2.733-0.61134 3.4044-1.1794 0.45257-1.4475 0.19124-1-0.9748zm11.107 0.56338c-0.70136-1.1348 0.53483-1.6631 5.2544-2.2455 2.627-0.32417 3.25-0.0508 3.25 1.4258 0 1.46-0.79121 1.8268-3.941 1.8268-2.1675 0-4.2211-0.45318-4.5634-1.0071zm286.14-0.68679c-1.1952-1.1952-0.64571-3.3061 0.86052-3.3061 0.825 0 1.5 0.64844 1.5 1.441 0 1.6706-1.4273 2.7984-2.3605 1.8652zm347.73-0.77302c-0.66061-1.7215 4.3018-6.4545 6.8166-6.5015 2.9414-0.055 2.8658 1.6123-0.2195 4.8408-3.2258 3.3755-5.7001 3.9983-6.5971 1.6607zm-94.832-3.464c-0.31644-0.51199-0.11799-1.2136 0.44098-1.559 0.55897-0.34547 1.0163 0.0734 1.0163 0.9309 0 1.7565-0.60006 2.0152-1.4573 0.62811zm3.4573-0.0691c0-0.55 0.45-1 1-1s1 0.45 1 1-0.45 1-1 1-1-0.45-1-1zm8 0c0-0.55 0.675-1 1.5-1s1.5 0.45 1.5 1-0.675 1-1.5 1-1.5-0.45-1.5-1zm-538-3c0-1.1 0.20917-2 0.46482-2s0.94648 0.9 1.5352 2c0.85431 1.5963 0.76049 2-0.46482 2-0.86852 0-1.5352-0.86852-1.5352-2zm559.7 1.3679c-1.5713-1.5713-0.57261-3.3679 1.8721-3.3679 1.906 0 2.4865 0.45081 2.2385 1.7385-0.35057 1.8204-2.9065 2.8335-4.1106 1.6294zm-462.7-2.3993c0-1.2889 2.8491-2.4529 3.7642-1.5378 0.37285 0.37285 0.0159 1.0966-0.79313 1.6082-1.9358 1.2242-2.971 1.1997-2.971-0.0704zm170.64-0.46861c0.31659-0.825 1.4275-1.5 2.4686-1.5 1.0412 0 1.893 0.675 1.893 1.5 0 0.92824-0.94096 1.5-2.4686 1.5-1.7835 0-2.3089-0.41631-1.893-1.5zm275.36 0.46861c0-1.3909 2.6262-2.3176 4.0589-1.4322 0.84256 0.52073 0.78793 0.94598-0.20212 1.5733-1.861 1.1792-3.8568 1.1062-3.8568-0.14107zm72.638-0.46861c0.31659-0.825 1.4275-1.5 2.4686-1.5 1.0412 0 1.893 0.675 1.893 1.5 0 0.92824-0.94096 1.5-2.4686 1.5-1.7835 0-2.3089-0.41631-1.893-1.5zm-52.841-4.9442c-2.3635-2.9943-4.8527-5.4693-5.5315-5.5-0.67883-0.0307-2.7038-1.3926-4.5-3.0265l-3.2658-2.9707 2.5179-0.0293c2.5245-0.0294 9.9821 4.3383 9.9821 5.8462 0 0.44189 1.125 1.316 2.5 1.9425 1.6814 0.76612 2.5 1.9453 2.5 3.6015 0 1.3543 0.45 2.7405 1 3.0805 0.55 0.33992 1 1.0415 1 1.559 0 2.1799-2.1725 0.60263-6.2027-4.5032zm34.786 2.5784c-0.43077-0.697-0.51316-1.5373-0.18309-1.8674 0.89497-0.89496 1.8708 0.4213 1.3874 1.8714-0.33872 1.0162-0.57427 1.0154-1.2043-0.004zm39.832-0.2719c-0.76012-1.2299 1.426-3.8623 3.2075-3.8623 2.1542 0 1.6176 3.704-0.62144 4.2895-1.0995 0.28751-2.2632 0.0953-2.5861-0.42718zm-495.96-5.5295c0.77404-3.084 2.1186-4.2941 4.7974-4.3175 2.4438-0.0214 2.1912 1.636-0.35062 2.3008-1.1553 0.30212-1.8159 1.01-1.468 1.5729 0.34795 0.563 1.3546 0.74658 2.2371 0.40796 1.0919-0.41901 1.4564-0.16549 1.141 0.79368-0.25491 0.77514-1.9483 1.5546-3.7631 1.7322-3.1643 0.30957-3.2707 0.20744-2.5937-2.49zm335.55 1.5143c0-0.37423 0.49656-0.84594 1.1035-1.0482 0.75591-0.25197 0.60777-1.5542-0.47032-4.1344-1.4259-3.4126-1.7754-3.6587-3.7192-2.6184-1.7189 0.91992-2.0562 0.88037-1.6968-0.19893 0.59603-1.7899 3.5401-2.2849 6.1643-1.0364 1.1652 0.55438 2.9567 1.2791 3.9812 1.6105 1.5374 0.49732 1.6435 0.86656 0.6075 2.1148-1.5754 1.8983-1.3254 2.1259 3.2799 2.9861 3.0716 0.57376 3.75 0.40899 3.75-0.91081 0-0.88621 0.3375-1.6174 0.75-1.625 0.4125-0.008 1.7625-0.28499 3-0.61663 1.35-0.36179 2.25-0.15633 2.25 0.51365 0 0.61415-0.675 1.1166-1.5 1.1166s-1.5 0.66087-1.5 1.4686c0 0.94902 0.57898 1.2464 1.6364 0.84065 1.1264-0.43225 1.4884-0.18873 1.1613 0.78139-0.36209 1.0739-2.6556 1.4126-9.6364 1.4231-5.0387 0.008-9.1613-0.29243-9.1613-0.66666zm-497.5-0.847c-0.33992-0.55-0.14148-1 0.44098-1s1.059 0.45 1.059 1-0.19844 1-0.44098 1-0.7191-0.45-1.059-1zm489.5 0c0-0.55 0.45-1 1-1s1 0.45 1 1-0.45 1-1 1-1-0.45-1-1zm-200.5-1c0.33992-0.55 1.068-1 1.618-1s0.72189 0.45 0.38197 1-1.068 1-1.618 1-0.72189-0.45-0.38197-1zm348 0c0.33992-0.55 1.068-1 1.618-1s0.72189 0.45 0.38197 1-1.068 1-1.618 1-0.72189-0.45-0.38197-1zm67.5 0c0-0.55 0.45-1 1-1s1 0.45 1 1-0.45 1-1 1-1-0.45-1-1zm-684.78-2.1866c0.49828-1.4948 2.7711-2.3179 2.7711-1.0035 0 0.53699-0.7126 1.2498-1.5836 1.584-0.97391 0.37372-1.4311 0.15024-1.1875-0.58051zm524.77-1.2399c0-1.9355 0.51297-2.5733 2.0696-2.5733 1.5718 0 1.9927 0.53864 1.75 2.2398-0.4742 3.3237-3.8196 3.6159-3.8196 0.33354zm-371.85-1.5876c0.65516-1.8794 1.734-2.9857 2.9116-2.9857 2.418 0 1.5711 2.3522-1.5934 4.4257-2.3472 1.5379-2.3538 1.5307-1.3182-1.44zm497.24 1.5145c1.0435-0.78989 2.2884-1.1945 2.7663-0.8991 1.4427 0.89163-0.134 2.401-2.4726 2.3671-2.119-0.0308-2.1286-0.079-0.29366-1.468zm-80.759-2.0002c-0.35062-0.91371-0.002-1.5 0.89301-1.5 0.80774 0 1.4686 0.675 1.4686 1.5s-0.40186 1.5-0.89301 1.5c-0.49116 0-1.152-0.675-1.4686-1.5zm30.362 0.60699c0-0.9972 2.4133-2.107 4.5818-2.107 0.78001 0 1.4182 0.675 1.4182 1.5 0 1-1 1.5-3 1.5-1.65 0-3-0.40186-3-0.89301zm-396-1.607c-1.0552-1.2714-0.82652-1.5 1.5-1.5s2.5552 0.22862 1.5 1.5c-0.68469 0.825-1.3597 1.5-1.5 1.5-0.14031 0-0.81531-0.675-1.5-1.5z"/>
</svg>
