<?xml version="1.0" encoding="UTF-8" standalone="no"?>
<!-- Created with Inkscape (http://www.inkscape.org/) -->

<svg
   xmlns:dc="http://purl.org/dc/elements/1.1/"
   xmlns:cc="http://creativecommons.org/ns#"
   xmlns:rdf="http://www.w3.org/1999/02/22-rdf-syntax-ns#"
   xmlns:svg="http://www.w3.org/2000/svg"
   xmlns="http://www.w3.org/2000/svg"
   xmlns:sodipodi="http://sodipodi.sourceforge.net/DTD/sodipodi-0.dtd"
   xmlns:inkscape="http://www.inkscape.org/namespaces/inkscape"
   id="svg5824"
   version="1.1"
   inkscape:version="0.91 r13725"
   width="236"
   height="151"
   viewBox="0 0 236 151"
   sodipodi:docname="Contra-white.svg">
  <metadata
     id="metadata5830">
    <rdf:RDF>
      <cc:Work
         rdf:about="">
        <dc:format>image/svg+xml</dc:format>
        <dc:type
           rdf:resource="http://purl.org/dc/dcmitype/StillImage" />
        <dc:title></dc:title>
      </cc:Work>
    </rdf:RDF>
  </metadata>
  <defs
     id="defs5828" />
  <sodipodi:namedview
     pagecolor="#ffffff"
     bordercolor="#666666"
     borderopacity="1"
     objecttolerance="10"
     gridtolerance="10"
     guidetolerance="10"
     inkscape:pageopacity="0"
     inkscape:pageshadow="2"
     inkscape:window-width="1285"
     inkscape:window-height="758"
     id="namedview5826"
     showgrid="false"
     inkscape:zoom="1.1610169"
     inkscape:cx="173.25308"
     inkscape:cy="75.5"
     inkscape:window-x="-2"
     inkscape:window-y="0"
     inkscape:window-maximized="0"
     inkscape:current-layer="svg5824" />
  <path
     style="fill:#f9f9f9"
     d="m 65.717502,149.63105 c -8.6031,-2.02579 -13.786193,-6.68435 -14.651667,-13.16891 L 50.5,132.22263 34.25,131.94786 c -15.461881,-0.26145 -20.271383,-1.24823 -12.860187,-2.63858 4.362175,-0.81835 4.579647,-1.73013 4.596532,-19.27155 C 26.003098,92.63412 25.43164,90.706113 20.274751,90.767732 18.198638,90.792539 15.15,91.406811 13.5,92.132781 l -3,1.319945 2.682411,1.264671 c 3.476044,1.638842 5.39971,6.049013 3.87841,8.891583 -2.241958,4.18914 -8.5051017,5.49599 -11.3279225,2.36365 -4.4049296,-4.88792 -2.010731,-11.484818 5.4851115,-15.113493 4.067408,-1.968998 6.015565,-2.136072 24.847714,-2.130932 11.238852,0.0031 22.092852,0.466233 24.12,1.029256 10.014028,2.781314 11.754471,14.722689 2.800365,19.213619 -1.917349,0.96164 -2.77703,1.74914 -1.910403,1.75 0.866627,8.5e-4 2.554127,1.04305 3.75,2.316 C 66.853191,115.19526 67,116.33757 67,129.95529 c 0,8.03207 0.273145,15.31557 0.606989,16.18555 0.333844,0.86999 1.528588,1.58179 2.654987,1.58179 1.920727,0 1.94515,-0.11365 0.393012,-1.82874 C 69.744744,144.88808 69,142.48283 69,140.54888 c 0,-4.43892 2.892926,-7.22625 7.5,-7.22625 4.749289,0 7.5,2.77088 7.5,7.55499 0,4.63553 -2.320318,7.28478 -7.685067,8.7745 -4.359225,1.2105 -5.375825,1.20848 -10.597431,-0.0211 z m -15.536122,-28.40618 -0.31862,-9.50224 -3.471822,0 -3.471823,0 0.290443,8.25 0.290442,8.25 3.5,1.19356 c 1.925,0.65645 3.5,1.21996 3.5,1.25224 0,0.0323 -0.143379,-4.21732 -0.31862,-9.44356 z m -1.493941,-13.2879 c 2.065129,-1.31313 3.442693,-6.48462 2.776972,-10.42499 -0.663491,-3.927172 -3.482488,-6.789352 -6.686917,-6.789352 -1.571659,0 -1.777494,1.042206 -1.777494,9 0,8.671202 0.0822,8.999442 2.25,8.984692 1.2375,-0.008 2.784347,-0.35508 3.437439,-0.77035 z M 211.8104,132.1997 c -0.28761,-0.28761 -6.29521,-0.55021 -13.35022,-0.58356 l -12.82729,-0.0606 -3.31645,-3.31645 c -3.20058,-3.20058 -3.98009,-5.98332 -3.34135,-11.92812 0.19147,-1.78193 0.0926,-1.7989 -1.45627,-0.25 -3.78023,3.78023 -10.08829,0.99508 -9.33718,-4.12257 0.25106,-1.71057 0.0879,-2.88233 -0.36258,-2.60392 -0.45048,0.27841 -0.81906,4.97965 -0.81906,10.44719 0,8.16976 0.26726,9.94098 1.5,9.94098 0.825,0 1.5,0.45 1.5,1 0,0.59259 -3.66667,1 -9,1 -5.33333,0 -9,-0.40741 -9,-1 0,-0.55 0.675,-1 1.5,-1 1.24242,0 1.5,-1.88889 1.5,-11 0,-9.11111 -0.25758,-11 -1.5,-11 -0.825,0 -1.5,-0.45 -1.5,-1 0,-0.57143 3,-1 7,-1 4.50908,0 7,0.39942 7,1.12244 0,0.7529 0.41154,0.80045 1.25,0.14444 3.89388,-3.04662 10.35575,-1.68589 11.38035,2.39644 l 0.58239,2.32045 2.72253,-2.91447 c 3.05349,-3.26878 9.01311,-4.87002 12.39126,-3.32931 2.12823,0.97065 2.16306,0.86398 1.67347,-5.12436 -0.44155,-5.400668 -0.76304,-6.15299 -2.75,-6.435183 -1.2375,-0.175753 -2.25,-0.756452 -2.25,-1.290442 0,-0.57287 3.38213,-0.851823 8.25,-0.680449 l 8.25,0.290422 0.5,18.487702 c 0.44842,16.58047 0.68053,18.52232 2.25,18.82332 1.48081,0.284 1.75,-0.44477 1.75,-4.7377 0,-2.79032 0.38166,-5.07332 0.84813,-5.07332 0.46646,0 1.67214,1.82734 2.67927,4.06076 1.92104,4.2601 3.99842,5.93924 7.34784,5.93924 5.02303,0 3.5317,-3.91639 -2.80454,-7.365 -6.28949,-3.42317 -7.26285,-4.73551 -6.88523,-9.28304 0.25058,-3.01752 1.00539,-4.25163 3.71241,-6.06979 3.97321,-2.66859 7.05547,-2.87477 11.16975,-0.7472 2.66854,1.37996 3.02778,1.37996 3.55732,0 1.23564,-3.22002 2.37505,-1.31783 2.37505,3.96503 0,6.14011 -1.17965,6.98707 -3.49513,2.50942 -1.85435,-3.58593 -5.91004,-6.45166 -7.99715,-5.65076 -2.88972,1.10889 -1.47078,3.47127 3.90841,6.5071 7.62289,4.30209 9.98176,8.32783 7.96269,13.58944 -1.60716,4.18817 -12.73068,6.08793 -17.22291,2.94145 -2.15762,-1.51125 -2.32069,-1.48254 -2.83913,0.5 -0.53713,2.05399 -1.45441,2.63239 -2.50638,1.58042 z m -16.02522,-13.25668 c 0.24073,-8.65757 0.0354,-10.352 -1.31722,-10.87106 -2.93656,-1.12686 -3.96796,1.45947 -3.96796,9.95003 0,9.35951 0.74254,11.99232 3.24698,11.51282 1.512,-0.28949 1.79223,-1.74575 2.0382,-10.59179 z M 73.897883,129.438 c -5.661382,-3.80653 -7.174462,-12.45312 -3.245949,-18.54916 1.832579,-2.8437 8.726091,-6.11434 12.950183,-6.14425 4.078493,-0.0289 9.497734,3.70583 11.499074,7.92467 l 1.60119,3.37531 0.656575,-2.616 c 0.801894,-3.195 5.968224,-7.23809 10.469214,-8.19306 7.39761,-1.56953 16.17183,2.93938 16.17183,8.31041 0,2.55406 0.0631,2.52506 1.82399,-0.83889 1.99936,-3.8194 8.87252,-7.9844 13.17601,-7.9844 1.41692,0 4.58407,1.0125 7.03811,2.25 8.5832,4.32825 10.14596,13.30495 3.56621,20.4847 -2.87387,3.13594 -3.98874,3.63263 -9.10622,4.05702 -4.32989,0.35906 -6.65441,0.0404 -9.02761,-1.23768 C 128.0081,128.41205 124,122.25523 124,118.80129 c 0,-1.8148 -0.30082,-1.98803 -1.93426,-1.11384 -2.89251,1.54802 -4.83594,1.26498 -7.14093,-1.04001 -1.68988,-1.68988 -1.95208,-2.80395 -1.41211,-6 0.54734,-3.23964 0.37698,-3.92481 -0.97583,-3.92481 -2.10744,0 -4.53687,5.79325 -4.53687,10.81866 0,11.71237 6.89111,15.38201 13.71404,7.30298 1.679,-1.98811 2.22272,-2.22378 2.25,-0.97523 0.0198,0.90552 -1.5547,3.04302 -3.49884,4.75 -3.05323,2.68077 -4.29733,3.10359 -9.13196,3.10359 -3.86641,0 -6.60572,-0.62332 -8.85874,-2.01576 C 99.2735,127.72854 96,122.47771 96,119.3215 c 0,-1.33407 -1.346629,-1.59887 -8.130842,-1.59887 l -8.130843,0 0.588099,3.62403 c 1.241027,7.64755 6.764365,9.63131 11.801795,4.23872 3.172014,-3.39565 4.732162,-3.33889 2.888989,0.10511 -3.233061,6.04104 -14.68573,8.07325 -21.119315,3.74751 z m 67.495127,-1.29716 c 1.29385,-3.37171 0.64025,-17.99291 -0.89301,-19.97708 -1.48484,-1.92151 -1.51516,-1.92151 -3,0 -1.05449,1.3646 -1.5,4.38464 -1.5,10.16821 0,9.44975 0.51118,11.39066 3,11.39066 0.98231,0 2.05917,-0.7118 2.39301,-1.58179 z m -55.725861,-16.0819 c -0.326994,-2.01503 -1.091168,-4.15253 -1.698163,-4.75 C 82.44336,105.80725 80,109.25766 80,112.91376 c 0,2.48039 0.366137,2.80887 3.130842,2.80887 3.046269,0 3.114783,-0.099 2.536307,-3.66369 z M 109.5,101.75552 C 100.56592,97.460058 100,96.096138 100,78.859798 100,67.478529 99.70695,64.572435 98.430554,63.296039 c -1.184682,-1.184682 -2.042738,-1.316147 -3.5,-0.536245 C 93.211956,63.67956 93,64.941932 93,74.257812 c 0,8.635392 0.262225,10.464816 1.5,10.464816 0.825,0 1.5,0.45 1.5,1 0,0.6 -4,1 -10,1 -9.228049,0 -12.822204,-1.028714 -8,-2.289749 1.841224,-0.481491 2,-1.364016 2,-11.116631 0,-9.926953 -0.125862,-10.59362 -2,-10.59362 -1.1,0 -2,-0.45 -2,-1 0,-0.55 2.140471,-1 4.756602,-1 2.616131,0 6.239713,-0.425351 8.052404,-0.945224 2.603526,-0.746681 3.41435,-0.636296 3.860181,0.525524 0.356627,0.929353 0.981525,1.144001 1.697596,0.583111 4.026945,-3.15426 13.224427,-1.769859 16.579597,2.495554 1.89275,2.406234 2.05362,3.973546 2.05362,20.007278 0,14.75718 0.23412,17.486369 1.54313,17.988679 2.36607,0.90795 2.96981,-0.43065 1.11741,-2.477532 -3.57675,-3.952264 -0.40561,-10.17739 5.18447,-10.17739 7.38838,0 8.71793,10.081392 1.7647,13.380922 -4.4571,2.11503 -8.19312,2.01585 -13.10971,-0.34803 z M 15.168383,85.119247 C 6.7713519,80.93483 2,73.066648 2,63.40397 2,53.388646 6.097886,46.226932 14.168757,42.137112 c 10.420424,-5.280428 24.609649,-3.847707 30.710631,3.100928 4.206914,4.79141 4.883802,7.982495 2.401527,11.321641 -2.900364,3.901558 -8.332211,4.184487 -11.16623,0.581616 C 34.951608,55.662685 34,53.899283 34,53.222628 c 0,-2.145125 4.068512,-6.5 6.07258,-6.5 2.981513,0 2.28385,-1.60298 -1.473709,-3.386059 C 34.275935,41.285202 31.528912,41.29712 27.998548,43.382557 23.073002,46.292149 21,51.411572 21,60.665962 c 0,14.947531 4.042243,23.056666 11.493289,23.056666 6.884464,0 10.936739,-3.821509 13.052975,-12.309644 0.4537,-1.819775 1.185491,-2.623533 2.077114,-2.281385 C 48.38052,69.422142 49,69.087257 49,68.38741 49,66.316267 55.367256,60.764485 58.906882,59.749334 71.359624,56.177935 82.667986,69.588216 75.75,79.723134 72.423963,84.59581 67.512228,86.934217 61.675508,86.423798 55.71046,85.902156 52.170244,83.41724 49.25,77.702196 48.0125,75.280355 47,74.001682 47,74.8607 47,77.916921 41.266168,84.398969 37.081688,86.073266 30.656599,88.644077 21.436256,88.24266 15.168383,85.119247 Z M 64.8,83.522628 C 66.054646,82.267982 66.524383,66.252722 65.393011,63.304415 65.059167,62.434432 63.982312,61.722628 63,61.722628 c -2.510744,0 -3,1.937744 -3,11.881787 0,7.923132 0.862121,11.118213 3,11.118213 0.33,0 1.14,-0.54 1.8,-1.2 z m 55.7,2.045268 c -3.88909,-2.127165 -4.5,-3.964847 -4.5,-13.536398 0,-8.642203 -0.14323,-9.30887 -2,-9.30887 -2.89516,0 -2.4541,-1.713815 0.8855,-3.440789 1.58702,-0.820682 4.68125,-3.532238 6.87607,-6.02568 2.19482,-2.493442 4.27134,-4.533531 4.6145,-4.533531 0.34316,0 0.62393,2.475 0.62393,5.5 l 0,5.5 11,0 c 7.46664,0 11,0.360545 11,1.122445 0,0.799849 0.41105,0.781304 1.43021,-0.06453 0.78662,-0.652834 3.13498,-1.045434 5.21858,-0.872445 2.8452,0.23622 4.14568,0.95419 5.22355,2.88382 3.03278,5.42935 -1.86226,11.25931 -7.35312,8.75751 -3.09271,-1.409136 -3.99976,-4.057408 -2.4109,-7.039031 1.10732,-2.077977 1.06655,-2.161916 -0.4446,-0.915328 C 149.32794,64.696992 149,66.815949 149,74.345073 c 0,8.835922 0.12033,9.377555 2.08333,9.377555 1.14584,0 1.92253,0.482432 1.72598,1.072071 -0.40337,1.210115 -16.76224,1.693088 -18.61259,0.549511 -0.63546,-0.392739 -2.0351,-0.243261 -3.11031,0.332174 -2.51974,1.348525 -8.02572,1.2921 -10.58641,-0.108488 z m 17.48469,-12.130452 c -0.008,-5.068149 -0.37429,-9.780239 -0.81303,-10.471312 -0.55698,-0.877295 -2.21222,-1.062619 -5.48469,-0.614076 L 127,62.994476 l 0,9.164076 c 0,9.070759 0.79713,11.564076 3.69713,11.564076 0.71342,0 1.97724,-1.4625 2.80847,-3.25 l 1.51133,-3.25 -0.44587,3.751683 c -0.41079,3.456509 -0.29344,3.670104 1.49154,2.714816 1.70324,-0.91155 1.93555,-2.150575 1.92209,-10.251683 z m 26.35208,11.808513 c -4.41229,-3.090488 -3.66119,-10.50713 1.29266,-12.764257 l 2.66959,-1.216346 -2.39951,-0.566448 C 163.94858,70.238354 163.5,69.497046 163.5,66.733594 c 0,-2.805294 0.59017,-3.743544 3.37941,-5.372546 5.69333,-3.325085 17.80308,-1.974208 19.74971,2.203137 0.42506,0.912144 1.03448,5.708443 1.35428,10.658443 0.3198,4.95 0.86119,8.325 1.20309,7.5 0.3419,-0.825 0.97548,-2.4 1.40794,-3.5 0.68731,-1.748203 0.83639,-1.625358 1.18414,0.975753 0.75396,5.639435 -7.42122,9.699689 -12.31903,6.118324 -1.65189,-1.207897 -2.30565,-1.207897 -4.64146,0 -3.51828,1.819369 -7.82429,1.790304 -10.48131,-0.07075 z M 176,77.580278 c 0,-3.571791 -0.36137,-4.905603 -1.25,-4.613684 -1.33445,0.438376 -2.25552,6.996285 -1.3237,9.424577 1.10217,2.872196 2.5737,0.121528 2.5737,-4.810893 z m -2.25,-6.487936 c 1.89942,-0.509026 2.25,-1.285956 2.25,-4.986345 0,-3.849532 -0.26793,-4.383369 -2.2,-4.383369 -1.71111,0 -1.93333,0.266667 -1,1.2 0.66,0.66 1.2,2.4225 1.2,3.916667 0,2.053482 -0.67132,2.961854 -2.75,3.721052 -3.00716,1.098309 -1.11537,1.500878 2.5,0.531995 z M 160.51924,55.972628 c -0.81292,-5.455016 -4.77426,-14.409177 -7.25436,-16.397635 -1.20914,-0.969444 -1.09311,-0.502917 0.4098,1.647635 2.68077,3.836003 4.82222,8.989388 5.71371,13.75 1.10014,5.874845 -0.8817,4.389378 -2.66831,-2 -0.88431,-3.1625 -2.30595,-6.65 -3.1592,-7.75 -1.16505,-1.501944 -1.08455,-0.879374 0.32324,2.5 2.89879,6.958487 3.51943,10.368836 1.76444,9.695382 -0.79916,-0.306669 -1.71492,-0.295688 -2.03501,0.0244 -0.32009,0.32009 -3.07825,0.693386 -6.12925,0.829548 -5.49633,0.245293 -5.56494,0.212924 -7.47193,-3.525092 C 134.34303,43.634042 121.75147,41.720922 113.60775,50.735038 111.62349,52.931381 110,55.552093 110,56.558842 c 0,2.799352 -0.8708,3.115714 -4.45455,1.618331 -1.81028,-0.756384 -3.59804,-1.068619 -3.97281,-0.693855 -0.37476,0.374764 -1.10003,0.01942 -1.6117,-0.78965 -0.630021,-0.996207 -0.935257,-1.067556 -0.945627,-0.22104 -0.0084,0.6875 -0.501068,1.25 -1.094768,1.25 -0.66259,0 -0.869712,-1.25509 -0.536335,-3.25 l 0.54312,-3.25 -1.108325,3.25 c -0.609579,1.7875 -1.493229,3.25 -1.963665,3.25 -1.095174,0 -1.075967,-0.743924 0.127558,-4.94037 0.540595,-1.884942 0.785857,-3.624209 0.545028,-3.865038 -0.24083,-0.240829 -0.961556,1.641867 -1.601614,4.183769 -1.394116,5.536538 -3.232477,6.178099 -2.497637,0.871639 l 0.5193,-3.75 -1.223987,3.668154 c -1.847035,5.535356 -3.096971,5.978941 -2.34398,0.831846 0.362079,-2.475 1.908071,-7.057428 3.435538,-10.183172 1.527466,-3.125745 2.372592,-5.433104 1.878056,-5.127464 -1.584825,0.979476 -5.62271,10.655088 -6.282335,15.05378 -0.351095,2.341271 -1.03726,4.256856 -1.524811,4.256856 -1.314124,0 -1.081809,-2.971901 0.70889,-9.068499 2.028809,-6.907262 4.548042,-11.167719 10.307347,-17.431501 l 4.597307,-5 -5.306903,5 C 90.249575,37.82243 85.349786,46.891516 84.357819,54.128705 83.750298,58.561059 82,60.62136 82,56.904129 c 0,-5.501433 5.390564,-18.260795 10.638658,-25.181501 2.290781,-3.020873 2.156933,-2.952426 -0.977759,0.5 -4.367332,4.810007 -8.132086,12.109399 -9.942085,19.276471 -1.609505,6.373178 -2.796794,6.023069 -1.584285,-0.467176 1.259665,-6.742659 4.868773,-13.997846 10.354632,-20.815336 2.652751,-3.296677 3.587004,-4.868959 2.076117,-3.493959 -4.748877,4.321769 -9.212895,11.236637 -12.160958,18.837606 -2.860228,7.374506 -4.621821,8.441003 -2.347327,1.421109 2.282063,-7.043254 7.125765,-15.571207 11.788691,-20.755488 3.668936,-4.079154 3.410465,-3.905376 -1.220854,0.820813 -3.84443,3.923183 -7.086241,8.545693 -9.378941,13.373467 -3.652027,7.690132 -4.868577,8.960476 -3.281476,3.426577 C 77.890349,37.131367 84.090569,27.815688 90.748765,21.633586 94.461944,18.185917 96.15,16.297471 94.5,17.437038 83.910903,24.750364 74.414862,39.424348 72.004508,52.198736 c -0.812075,4.303832 -1.702883,6.523892 -2.617739,6.523892 -4.66259,0 2.096312,-20.925321 10.218471,-31.636026 16.924849,-22.3188265 48.11036,-29.2208161 72.74314,-16.099543 15.59914,8.309274 27.58277,25.378514 30.17845,42.985569 0.58578,3.973445 0.43958,4.75 -0.89423,4.75 -0.93585,0 -1.82783,-1.135963 -2.15936,-2.75 -3.62155,-17.631367 -10.35728,-29.191456 -21.83997,-37.482511 -1.5767,-1.138455 0.2233,1.035628 4,4.831296 6.55339,6.586297 11.27232,14.098421 13.30206,21.175711 0.50878,1.774027 0.77047,3.225504 0.58153,3.225504 -0.18893,0 -1.99614,-3.344645 -4.01601,-7.432546 -2.0642,-4.177615 -6.07225,-9.980179 -9.15227,-13.25 l -5.47978,-5.817454 5.23332,6.5 c 6.0282,7.487269 9.9082,15.318121 10.56232,21.317502 0.41063,3.766104 0.21918,3.512653 -1.92304,-2.545798 -2.91778,-8.251827 -8.6577,-16.776323 -14.132,-20.987771 -3.76643,-2.897566 -3.66624,-2.707503 1.20057,2.277326 6.40902,6.564443 12.26056,17.81192 12.80453,24.612104 0.38579,4.822836 0.38424,4.820986 -1.97539,-2.348637 -3.07763,-9.351265 -6.37485,-14.795528 -12.30929,-20.324726 l -4.82982,-4.5 4.13506,4.5 c 7.13867,7.768711 11.01687,15.430038 12.78164,25.25 1.06795,5.942498 -1.01824,4.359273 -2.23422,-1.695577 -1.05073,-5.231978 -5.26473,-14.869189 -6.95984,-15.916826 -0.44847,-0.277168 0.44186,2.053486 1.97852,5.179231 3.10029,6.306375 5.31039,16.071625 3.94613,17.435882 -0.49728,0.497278 -1.14781,-1.19826 -1.51162,-3.939876 -0.61967,-4.669739 -5.53975,-16.517485 -7.31491,-17.614593 -0.48296,-0.298488 0.57962,2.459799 2.3613,6.129527 3.33278,6.864525 5.37307,16.172232 3.54503,16.172232 -0.55,0 -1.31854,-2.1375 -1.70785,-4.75 z m -6.83613,-2.4375 c -0.31922,-0.797733 -0.55618,-0.560776 -0.60416,0.604167 -0.0434,1.054166 0.19292,1.644791 0.52522,1.3125 0.33229,-0.332292 0.36781,-1.194792 0.0789,-1.916667 z m -1.56104,-4.487497 c -1.17884,-2.027217 -1.46351,-1.378356 -0.49853,1.136338 0.34294,0.893703 0.83419,1.414259 1.09166,1.15679 0.25747,-0.257469 -0.009,-1.289377 -0.59313,-2.293128 z M 95.273841,44.448934 c 1.436519,-2.625532 2.181141,-4.5075 1.654716,-4.182151 C 95.927925,40.885207 92,48.12385 92,49.349457 c 0,0.982262 0.304779,0.526046 3.273841,-4.900523 z m 4.214876,-1.34943 c 0.945303,-1.442718 1.224483,-2.317655 0.620383,-1.944306 -1.154391,0.713455 -3.482673,4.56743 -2.759294,4.56743 0.231096,0 1.193606,-1.180406 2.138911,-2.623124 z m 3.638843,-0.126876 c 1.24387,-1.586056 1.2085,-1.621426 -0.37756,-0.377555 -0.9625,0.754844 -1.75,1.542344 -1.75,1.75 0,0.823034 0.82119,0.293303 2.12756,-1.372445 z M 152,42.377616 c 0,-0.189757 -1.0125,-1.202257 -2.25,-2.25 l -2.25,-1.904988 1.90499,2.25 C 151.19521,42.587073 152,43.177869 152,42.377616 Z m -51.5,-5.654988 c 0.99549,-1.1 1.58498,-2 1.30998,-2 -0.275,0 -1.31449,0.9 -2.30998,2 -0.995486,1.1 -1.584975,2 -1.309975,2 0.275,0 1.314489,-0.9 2.309975,-2 z m -1.937091,-2.25 2.937091,-3.25 -3.25,2.937091 c -3.029455,2.737781 -3.709652,3.562909 -2.937091,3.562909 0.1721,0 1.6346,-1.4625 3.25,-3.25 z M 155,36.377616 c 0,-0.189757 -1.0125,-1.202257 -2.25,-2.25 l -2.25,-1.904988 1.90499,2.25 C 154.19521,36.587073 155,37.177869 155,36.377616 Z m 3,-0.958821 c 0,-0.167108 -1.6875,-1.854608 -3.75,-3.75 l -3.75,-3.446167 3.44617,3.75 C 157.15378,35.463047 158,36.182415 158,35.418795 Z M 99.127555,25.972628 c 1.243875,-1.586056 1.208505,-1.621426 -0.377555,-0.377555 -0.9625,0.754844 -1.75,1.542344 -1.75,1.75 0,0.823034 0.821186,0.293303 2.127555,-1.372445 z m -1,-3 c 1.243871,-1.586056 1.208501,-1.621426 -0.377555,-0.377555 -0.9625,0.754844 -1.75,1.542344 -1.75,1.75 0,0.823034 0.821186,0.293303 2.127555,-1.372445 z"
     id="path6376"
     inkscape:connector-curvature="0" />
</svg>
