<?xml version="1.0" encoding="UTF-8" standalone="no"?>
<!-- Created with Inkscape (http://www.inkscape.org/) -->
<svg id="svg4978" xmlns:rdf="http://www.w3.org/1999/02/22-rdf-syntax-ns#" xmlns="http://www.w3.org/2000/svg" height="308" viewBox="0 0 309 308" width="309" version="1.1" xmlns:cc="http://creativecommons.org/ns#" xmlns:dc="http://purl.org/dc/elements/1.1/">
 <metadata id="metadata4984">
  <rdf:RDF>
   <cc:Work rdf:about="">
    <dc:format>image/svg+xml</dc:format>
    <dc:type rdf:resource="http://purl.org/dc/dcmitype/StillImage"/>
    <dc:title/>
   </cc:Work>
  </rdf:RDF>
 </metadata>
 <path id="path5528" fill="#f9f9f9" d="m182.64 298.47c-7.7316-3.5134-19.584-19.367-22.948-30.696-2.3839-8.0274-2.5082-7.8622 5.9168-7.8622 7.5645 0 29.45-4.8375 37.904-8.3782 2.1297-0.89196 4.7475-1.6218 5.8174-1.6218 2.365 0 1.9996 1.7167-2.2606 10.623-3.3993 7.1061-3.5678 8.3242-1.1789 8.5227 7.4195 0.61631 16.113-2.8171 20.583-8.1288 2.1197-2.5191 2.4214-3.5335 1.6524-5.556-1.7447-4.5889-3.8924-7.9382-8.2203-12.819l-4.308-4.8587-4.9784 2.8955c-14.335 8.3373-29.869 13.011-46.247 13.915-23.449 1.2937-42.804-3.3809-62.946-15.202-3.2048-1.8809-3.2192-1.8798-5 0.392-0.98225 1.2531-2.9753 3.6417-4.4289 5.3079-1.4537 1.6663-3.6851 4.994-4.9588 7.3949-1.9826 3.7373-2.1362 4.7008-1.0678 6.6973 2.6537 4.9584 12.366 9.6959 20.036 9.773 5.0713 0.051 5.0699 0.38107 0.0462-10.688-1.8052-3.9776-2.9599-7.5543-2.566-7.9482s2.3895-0.22396 4.4347 0.37765c24.067 7.0796 30.453 8.5607 39.017 9.0495l9.299 0.53071-0.63172 3.1112c-0.82399 4.0581-5.858 15.036-9.222 20.111-3.165 4.7748-10.873 12.709-13.928 14.336-4.5223 2.4091-6.638 1.4991-9.5724-4.1173l-2.7566-5.2761-13.491 0.39424c-15.324 0.44781-17.832-0.10972-33.244-7.39-11.907-5.6246-18.17-7.4441-25.683-7.461-10.029-0.0226-10.254-0.1822-11.033-7.825-1.1566-11.347-3.3088-18.747-8.408-28.908-6.4559-12.865-8.127-18.815-8.127-28.935 0-8.1528-0.0486-8.3185-2.441-8.3185-1.3425 0-2.7191 0.45-3.059 1-0.33992 0.55-1.7165 1-3.059 1-7.5044 0 2.1656-21.389 15.862-35.086 5.3544-5.3544 14.504-10.914 17.961-10.914 1.497 0 1.7377 1.0658 1.7504 7.75 0.023 12.038 5.5993 31.781 10.136 35.886 2.2423 2.0293 2.3785 3.9466 0.33593 4.7304-1.5242 0.58487-13.958-0.76902-18.35-1.9981-2.1213-0.59361-2.2925-0.41561-1.6684 1.7349 1.5424 5.315 6.2519 13.464 9.9272 17.176 3.4117 3.4466 4.318 3.866 7.3059 3.3812 3.5183-0.57094 16.316-10.071 16.28-12.086-0.0105-0.59146-1.4377-3.3254-3.1718-6.0754-7.0793-11.227-11.213-20.873-14.225-33.194-5.1834-21.203-3.7856-41.274 4.4401-63.756 1.5998-4.3725 2.8075-8.0513 2.6838-8.175-0.12376-0.12376-2.9212 2.0269-6.2166 4.7793s-9.7412 7.9599-14.324 11.572l-8.3323 6.568-8.9177-8.8764c-4.9048-4.882-8.9177-9.5951-8.9177-10.473 0-0.87839 8.1-9.6534 18-19.5s18-18.25 18-18.674c0-0.42396-1.3645-0.77082-3.0321-0.77082-6.8055 0-14.439-5.1712-18.078-12.247-5.6579-11-2.2331-23.291 8.4999-30.503 4.2983-2.8884 5.6071-3.25 11.763-3.25 8.2402 0 12.782 1.9715 18.099 7.8568 3.3588 3.7178 5.7295 9.2468 5.7428 13.393 0.003 0.9625 0.34308 1.7487 0.75558 1.7472 0.4125-0.001 9.0217-8.3423 19.132-18.535s18.521-18.404 18.69-18.247c6.6053 6.0981 18.428 18.245 18.428 18.933 0 1.1394-6.3082 9.8251-14.18 19.523-3.2012 3.9443-5.8204 7.4409-5.8204 7.7703 0 0.32941 1.6875-0.24821 3.75-1.2836 10.393-5.2175 28.972-9.1607 43.131-9.1541 15.67 0.007 38.355 5.1799 46.725 10.654 3.6425 2.3822 3.176 1.685-9.1155-13.623-5.6803-7.0742-10.838-13.815-11.461-14.979-1.02-1.9059-0.24003-3.0092 7.8374-11.087 4.9336-4.9336 9.3619-8.9701 9.8408-8.9701 0.47891 0 9.378 8.4956 19.776 18.879l18.905 18.879 1.6238-4.7966c2.3156-6.8401 6.1444-11.363 12.155-14.358 6.8086-3.3929 12.797-3.4216 19.476-0.0933 14.597 7.2739 17.454 25.503 5.7982 36.994-3.0823 3.0387-5.6362 4.604-8.2085 5.0313-2.0538 0.34114-4.3719 0.82496-5.1515 1.0752-0.90879 0.29169 4.9181 6.8122 16.239 18.172 9.711 9.7444 17.886 17.98 18.168 18.301 0.28122 0.32096-3.7658 4.952-8.9934 10.291l-9.5048 9.7077-8.7455-6.7068c-4.81-3.6887-11.333-8.9268-14.495-11.64-3.1625-2.7134-5.75-4.7059-5.75-4.4277 0 0.27815 1.3838 3.5852 3.0752 7.3489 14.071 31.313 10.08 73.379-9.6218 101.41l-3.3886 4.8209 4.7176 4.1924c6.3486 5.6419 10.188 7.9122 13.388 7.9167 3.7423 0.005 11.95-9.3759 14.675-16.772 1.1419-3.0998 1.9516-5.7606 1.7993-5.9129-0.15228-0.15228-1.6331 0.11208-3.2906 0.58747-1.6576 0.47538-6.237 1.188-10.176 1.5836-6.1369 0.61631-7.2528 0.48474-7.7913-0.91867-0.34571-0.90091 0.0828-2.424 0.95222-3.3848 4.5885-5.0703 10.897-26.241 10.632-35.679-0.27555-9.8064 0.0221-10.065 7.3198-6.3656 13.804 6.9982 29.71 28.121 29.71 39.454 0 4.4525-0.10364 4.6195-2.5 4.0285-1.375-0.33912-3.625-0.89404-5-1.2332l-2.5-0.61657v8.4514c0 10.06-1.9159 16.59-9.01 30.705-5.2842 10.514-6.4647 14.551-7.5487 25.81-0.38302 3.9784-1.2015 7.6303-1.8188 8.1153-0.61733 0.48503-5.1966 1.1326-10.176 1.4389-7.7211 0.47505-10.444 1.1657-18.5 4.6921-23.151 10.134-23.927 10.334-39.545 10.171l-14.099-0.14701-1.869 4.1447c-1.8715 4.1502-3.9815 6.8859-5.2545 6.8125-0.37321-0.0215-2.0286-0.6526-3.6786-1.4024zm-20.566-63.149c5.7468-2.2994 8.5104-8.2811 7.8169-16.92-0.8201-10.217-4.9715-14.49-14.077-14.49-14.931 0-17.571 27.62-3.0554 31.966 4.1709 1.2488 4.9155 1.2044 9.315-0.55598zm-10.062-8.0633c-2.1194-2.5538-1.7779-11.688 0.53255-14.241 5.9268-6.549 13.627 4.1315 9.1792 12.732-1.3424 2.596-2.2362 3.1628-4.9874 3.1628-1.8979 0-3.9472-0.71731-4.7243-1.6537zm-16.401 1.6537c0.70362-1.925 3.2195-8.1183 5.5909-13.763 4.3966-10.465 4.4175-11.415 0.27822-12.663-1.8716-0.56425-2.5132 0.1198-4.8186 5.1376-2.4729 5.3823-2.7577 5.6555-4.0578 3.8927-0.76904-1.0427-1.6981-4.5464-2.0647-7.7861-0.49932-4.4134-1.1627-6.1559-2.6455-6.9496-1.0885-0.58256-4.6246-3.4913-7.8581-6.4639-5.5691-5.1198-7.9674-6.1342-12.847-5.4333-3.1358 0.45044-10.138 6.3242-12.651 10.611-3.9773 6.7868-3.0694 11.163 3.7487 18.066l5.2997 5.3663 9.2447-9.2062c5.0846-5.0634 9.4214-9.0044 9.6374-8.7577 0.21599 0.24668 0.68564 2.361 1.0437 4.6985 0.53453 3.4898 0.36679 4.25-0.93777 4.25-0.8738 0-2.9041 1.3154-4.5118 2.9231-3.7657 3.7657-4.0752 9.6585-0.67308 12.817 2.4986 2.32 13.49 7.2068 15.596 6.9339 0.74045-0.096 1.922-1.7495 2.6256-3.6745zm-10.875-7.1022c-2.1775-1.7128-2.4478-2.373-1.4591-3.5643 0.79462-0.95746 2.1019-1.2429 3.7876-0.82705 3.5234 0.8692 4.3896 1.9244 3.6062 4.3929-0.84447 2.6607-2.5508 2.6602-5.9347-0.002zm-23.46-15.44c-2.6823-3.41-2.6739-4.0642 0.10371-8.1226 2.9521-4.3134 8.1738-7.1895 10.448-5.7549 4.3595 2.7499 4.0524 4.1482-2.3088 10.509l-6.0967 6.0967-2.1463-2.7286zm91.748 21.977c5.2517-4.419 5.812-12.302 1.471-20.697-3.2706-6.3247-6.9014-8.6272-13.118-8.3188-6.9723 0.34583-12.668 7.5266-10.754 13.557 0.48005 1.5125 1.5074 2.0225 4.0745 2.0225 3.0182 0 3.4326-0.30973 3.4326-2.5657 0-3.5554 1.7275-6.4343 3.8609-6.4343 5.2145 0 10.629 13.11 6.9391 16.8-1.7353 1.7353-5.5478 1.4731-6.6272-0.45574-0.8382-1.4978-1.2387-1.4335-4.1975 0.67334l-3.2709 2.3291 3.1636 2.8267c4.2945 3.8371 10.646 3.948 15.026 0.26238zm31.088-22.702c0.01-0.4216-2.6321-3.5716-5.8711-7s-7.0658-7.6505-8.5039-9.3824l-2.6148-3.149 4.5697-0.36345c4.3261-0.34406 4.6531-0.18767 6.1343 2.9336 0.86049 1.8134 2.506 3.9565 3.6567 4.7624 2.1936 1.5364 8.3581 1.9572 10.257 0.70008 1.785-1.1819 8.642-15.141 8.104-16.497-0.50703-1.2784-24.576-13.738-26.539-13.738-1.1144 0-3.1744 3.0989-3.1744 4.7753 0 0.49875 2.2738 2.1444 5.0529 3.657s4.8805 3.2716 4.6697 3.9089c-0.21075 0.63733-3.497 1.6088-7.3029 2.1588-6.9065 0.99808-6.9365 1.0163-15.675 9.5-4.8155 4.675-8.753 8.9928-8.75 9.595 0.003 0.60226 0.8773 1.8841 1.943 2.8485 1.8688 1.6912 2.1121 1.5902 6.8537-2.845 5.5516-5.1929 6.6496-5.5118 8.3079-2.4131 1.0168 1.9 0.79288 2.5265-1.7148 4.798-5.0311 4.5571-5.6448 5.6616-4.4186 7.9528 1.6058 3.0004 4.1802 2.5403 8.0342-1.4361 3.6066-3.721 5.7214-4.3896 6.6046-2.0881 0.32328 0.84246-1.3027 3.1121-4.0314 5.6274-5.1172 4.7168-5.5406 6.1697-2.4327 8.3466 2.0273 1.42 2.5287 1.1454 9.482-5.1933 4.0378-3.6809 7.3496-7.0375 7.3595-7.4591zm0.91908-19.353c-0.87703-1.0568-0.96644-2.2928-0.30245-4.1808 1.0117-2.8768 3.0396-3.7516 5.311-2.2911 1.1674 0.75066 1.1946 1.4254 0.15844 3.9269-1.5 3.6212-3.4689 4.591-5.1669 2.545zm-133.87 3.9272c3.7034-2.5344 3.9406-3.1971 3.9572-11.058 0.0138-6.5349 0.20912-7.25 1.9801-7.25 3.2242 0 4.4337 3.5168 2.396 6.9663-1.4148 2.395-1.518 3.3933-0.56677 5.481 1.5424 3.3852 2.4024 3.2319 6.2125-1.1076 2.7591-3.1424 3.1402-4.2089 2.6936-7.5381-1.0847-8.087-7.1373-12.886-13.752-10.904-5.3286 1.5965-6.948 4.6423-6.948 13.067 0 7.1402-1.0089 8.7556-3.0669 4.9102-0.8633-1.6131-0.83692-2.6862 0.10953-4.4547 1.0398-1.9428 0.96772-2.7556-0.43382-4.8946-1.6435-2.5082-1.7342-2.5258-4.103-0.79534-2.7664 2.0209-4.6845 6.5089-3.867 9.0478 2.972 9.2292 9.2675 12.719 15.389 8.5298zm84.105-4.0496c17.081-8.4169 27.068-26.8 24.066-44.301-2.4158-14.088-10.954-25.77-23.232-31.787-12.338-6.0464-23.929-6.2572-36.574-0.66498-7.6123 3.3665-16.585 12.566-20.671 21.194-2.9958 6.3248-3.2209 7.5376-3.2112 17.302 0.01 9.9064 0.20342 10.896 3.425 17.5 3.8562 7.9052 12.848 17.507 18.835 20.114 8.4608 3.6835 11.847 4.3388 21.257 4.1138 8.4718-0.20256 10.256-0.58688 16.106-3.4695zm-22.919 0.58237c-12.873-1.4897-24.22-9.5328-30.273-21.459-3.2711-6.4445-3.4373-7.2822-3.4387-17.327-0.001-9.5584 0.26515-11.098 2.822-16.305 3.8944-7.9307 11.307-15.729 18.335-19.291 5.5077-2.7907 6.5267-2.9597 17.841-2.9597 11.223 0 12.346 0.18208 17.34 2.8126 11.461 6.0363 18.251 14.841 20.795 26.968 5.7344 27.332-15.666 50.772-43.422 47.56zm15.028-5.8336c24.489-7.5639 32.843-37.624 15.675-56.408-11.327-12.394-28.627-14.946-43.644-6.4401-15.265 8.647-21.075 29.458-12.789 45.81 2.5276 4.9879 11.226 13.555 15.501 15.265 10.182 4.0747 16.392 4.5105 25.256 1.7724zm-15.787-27.462c-3.7604-3.7604-2.8332-9.9408 1.9628-13.083 2.097-1.374 3.086-1.4512 6.0523-0.47221 4.0821 1.3472 5.5367 3.5084 5.515 8.1943-0.0179 3.876-0.69074 5.0984-3.669 6.666-3.4881 1.836-7.2133 1.3431-9.8612-1.3048zm-63.641 8.2046c0.24288-1.2743-0.32066-1.75-2.0731-1.75-2.9347 0-3.7789 0.7351-3.0438 2.6506 0.75726 1.9734 4.7015 1.2792 5.1169-0.90064zm141.94-2c-0.47212-1.4378-5.7562-2.3403-5.7562-0.98309 0 1.5092 1.2156 2.2331 3.75 2.2331 1.4856 0 2.2585-0.4816 2.0062-1.25zm15.892-9c-0.34683-2.8875-0.63451-7.8375-0.63929-11l-0.009-5.75h-3.5c-3.4167 0-3.5 0.0952-3.5 4 0 3.9543-0.0428 4.0001-3.75 4.0071-2.0625 0.004-6.9 0.26245-10.75 0.57454l-7 0.56743 2.6152-2.3245c1.4383-1.2785 3.8756-3.2245 5.416-4.3245 1.5405-1.1 6.0897-4.6187 10.109-7.8194l7.3085-5.8194-1.2956-3.1806-1.2956-3.1806-14.429-0.5c-10.006-0.34673-13.346-0.73139-10.895-1.2548 4.5528-0.97239 10.387-6.6633 12.498-12.191 1.5828-4.1445 1.5663-4.5431-0.36973-8.9197-2.258-5.1045-6.9598-8.625-11.527-8.631-7.0587-0.009-17.162 8.9854-18.245 16.243-0.63994 4.288 2.1383 9.5643 6.6092 12.552 2.3181 1.549 3.8458 3.5807 4.5264 6.0199 0.92112 3.3011 1.4101 3.7138 4.7285 3.9909 3.3626 0.28075 3.8111 0.67595 4.9028 4.3196 1.1529 3.8481 1.0865 4.1023-1.6388 6.2755-1.8788 1.4981-2.5659 2.7091-2.0296 3.5768 0.44594 0.72156 0.72979 3.7912 0.63077 6.8214l-0.18003 5.5095 12.531-0.63508 12.531-0.63508v3.4792c0 3.3349 0.15091 3.4792 3.6393 3.4792h3.6393l-0.6306-5.25zm-21.98-25.15c-0.34557-0.90052 0.31882-1.5604 1.8695-1.8568 3.1315-0.59863 3.8669 0.21785 1.687 1.8731-2.236 1.6979-2.8999 1.6949-3.5566-0.0163zm-17.459-18.162c-4.5015-3.153-2.1446-9.9081 4.6702-13.385 3.1273-1.5954 4.1628-1.7147 6.1751-0.7115 4.4353 2.2112 3.8017 7.9966-1.3013 11.882-4.5757 3.4843-6.9453 4.0339-9.544 2.2138zm-111.23 45.8c2.4887-1.2497 4.0138-3.0423 5.3463-6.2841 3.9015-9.4927-1.8755-17.475-13.47-18.612-9.9022-0.97085-16.222 2.9521-17.507 10.867-1.1044 6.8053 1.4876 11.373 8.1481 14.358 4.3068 1.9304 13.321 1.7609 17.482-0.32864zm-13.982-5.9579c-5.0594-1.8603-6.4638-6.6559-2.895-9.8856 2.7098-2.4523 9.5434-2.5207 13.189-0.13194 3.4682 2.2725 3.7127 6.9085 0.48352 9.1702-2.1654 1.5167-7.7606 1.9566-10.777 0.84726zm23.004-20.33c0-1.3302-2.0381-2.5824-7.75-4.7615-12.072-4.6054-11.756-4.5676-13.12-1.5738-0.66248 1.454-1.0752 2.7315-0.91707 2.839 0.1581 0.10746 4.5624 1.8094 9.7874 3.7822 9.7931 3.6975 12 3.6449 12-0.28581zm3.0836-6.1064c0.98449-1.8395 0.80611-2.4236-1.2148-3.9778-3.0936-2.379-4.1026-2.3225-5.7544 0.32247-1.2204 1.9542-1.1272 2.3826 0.87024 4 2.946 2.3855 4.6906 2.2869 6.099-0.3447zm-26.467-1.4512c0.65641-2.6153-0.66546-4.344-3.3472-4.3774-1.868-0.0232-2.8257 5.0182-1.1544 6.0767 2.4087 1.5254 3.8266 0.99019 4.5016-1.6994zm17.799-3.0328c0.68831-1.7937-0.22559-2.5912-9.8861-8.6268l-6.0293-3.7669-1.75 2.1277c-0.9625 1.1702-1.75 2.5159-1.75 2.9904 0 0.89381 15.623 8.7287 17.643 8.8481 0.62865 0.0372 1.4262-0.67051 1.7724-1.5726zm21.96-10.844c1.0315-0.78108 1.6443-2.0043 1.3619-2.7182-0.28245-0.71393-3.7638-5.0409-7.7363-9.6155l-7.2228-8.3175 2.1109-2.247c2.6189-2.7877 2.6411-3.8283 0.12997-6.1008-1.9258-1.7429-2.1414-1.6579-7.75 3.0537-3.173 2.6655-6.8517 5.8863-8.175 7.1573l-2.4059 2.3109 2.3355 2.486 2.3355 2.486 2.1349-2.0056c1.1742-1.1031 2.7809-1.98 3.5704-1.9487 0.78955 0.03131 4.5856 3.8447 8.4356 8.4742s7.45 8.4146 8 8.4113c0.55-0.003 1.8439-0.64509 2.8754-1.4262zm75.614-9.1568c2.5242-2.8749 3.0989-4.2946 2.7326-6.75-0.35809-2.4002 0.19097-3.8587 2.4071-6.3942 5.3105-6.0758 3.4122-10.275-7.0574-15.61-5.2045-2.6524-7.1376-3.2202-7.8661-2.3108-1.4545 1.8156-13.206 25.327-13.206 26.421 0 1.274 14.928 8.2813 17.646 8.2832 1.2181 0.000843 3.5289-1.5731 5.3429-3.6391zm-10.98-5.632c-1.375-0.62086-2.6735-1.2514-2.8855-1.4011-0.212-0.14975 0.3639-1.4159 1.2798-2.8138 1.581-2.413 1.8093-2.467 4.5143-1.0682 3.0129 1.558 4.079 3.2383 3.3608 5.2973-0.52768 1.5128-2.8996 1.5074-6.2694-0.01419zm4.6367-12.012c-1.7049-1.2466-1.4066-4.7236 0.40519-4.7236 2.6938 0 5.9581 2.1779 5.9581 3.9752 0 2.3729-3.5678 2.7925-6.3633 0.74837zm-57.862 18.835c0.23132-0.23132-0.52337-2.9435-1.6771-6.0271s-2.0977-5.9641-2.0977-6.4012c0-0.43708 1.6137-1.29 3.586-1.8953l3.586-1.1006 1.7792 4.1828c0.97858 2.3005 2.0687 5.017 2.4225 6.0365 0.44873 1.2932 1.1698 1.6363 2.3848 1.1347 4.1022-1.6936 9.2638-2.4423 16.992-2.4646l8.25-0.02386v-3.5811-3.5811l-6.75 0.33112-6.75 0.33112-0.31336-3.25-0.31336-3.25h6.5512 6.5512l-0.26001-3.25-0.26001-3.25-6.2279-0.29772c-5.8631-0.28028-6.2278-0.44133-6.2278-2.75 0-2.3515 0.26706-2.4523 6.5-2.4523h6.5v-3.5848-3.5849l-8.75 0.27409c-13.388 0.41936-12.243-0.90862-12.294 14.262-0.0405 12.125-0.14785 12.865-1.3975 9.6334-4.4317-11.459-7.9024-19.425-9.0566-20.787-0.6078-0.71718-5.502 2.2412-5.502 3.3258 0 0.66955 0.675 2.8329 1.5 4.8074 1.9161 4.5859 1.8855 5.3101-0.25 5.9242-0.9625 0.27675-2.509 0.81644-3.4366 1.1993-1.3286 0.54835-2.1498-0.38058-3.8685-4.3758-1.992-4.6305-2.411-5.0181-4.8134-4.4536-1.4473 0.34013-2.9626 0.91397-3.3674 1.2752-0.40475 0.36124 1.8452 7.0825 5 14.936l5.7359 14.279 2.9271-0.57575c1.6099-0.31666 3.1164-0.76502 3.3477-0.99634zm-54.937-31.458 1.7648-3.6526-3.8011 1.8806c-2.0906 1.0344-3.8011 2.2468-3.8011 2.6943 0 0.44754-0.25112 1.4681-0.55804 2.2679-0.42537 1.1085 0.0587 1.3363 2.0363 0.95826 1.7484-0.33422 3.1699-1.687 4.3591-4.1485zm166.28-1.3504c-0.72517-1.9966-5.7304-5.4732-6.6096-4.5909-0.18684 0.18749 0.27554 1.8034 1.0275 3.5909 1.0278 2.4433 1.9918 3.25 3.8833 3.25 2.1847 0 2.4084-0.29632 1.6989-2.25zm-193.12-14.858c0-2.441 4.6155-6.8932 7.146-6.8932 2.6406 0 2.341-3.1825-0.59828-6.354-1.9664-2.1218-3.3628-2.646-7.0477-2.646-3.685 0-5.0814 0.52426-7.0478 2.646-4.2017 4.5337-2.7364 11.998 2.8902 14.723 3.5231 1.7063 4.6575 1.3468 4.6575-1.4758zm217.13 1.5404c4.3204-2.2342 6.329-7.4034 4.5399-11.684-1.8546-4.4367-3.9576-5.95-8.2688-5.95-3.5524 0-8.3721 2.6178-9.1575 4.974-0.21125 0.63375 0.78 1.4444 2.2028 1.8015 3.5644 0.89461 6.5552 5.028 6.5552 9.0594 0 3.8661 0.0708 3.897 4.1284 1.7987z"/>
</svg>
