<?xml version="1.0" encoding="UTF-8" standalone="no"?>
<!-- Created with Inkscape (http://www.inkscape.org/) -->
<svg id="svg4506" xmlns:rdf="http://www.w3.org/1999/02/22-rdf-syntax-ns#" xmlns="http://www.w3.org/2000/svg" height="245" viewBox="0 0 638 245" width="638" version="1.1" xmlns:cc="http://creativecommons.org/ns#" xmlns:dc="http://purl.org/dc/elements/1.1/">
 <metadata id="metadata4512">
  <rdf:RDF>
   <cc:Work rdf:about="">
    <dc:format>image/svg+xml</dc:format>
    <dc:type rdf:resource="http://purl.org/dc/dcmitype/StillImage"/>
    <dc:title/>
   </cc:Work>
  </rdf:RDF>
 </metadata>
 <path id="path5056" fill="#f9f9f9" d="m9.0802 227.16c0.77418-1.5125 7.5738-16.195 15.11-32.628 7.5364-16.433 15.964-34.658 18.728-40.5 2.7642-5.8419 15.361-33.122 27.994-60.622 12.632-27.5 25.709-55.738 29.06-62.75l6.0923-12.75h138.33 138.33v37c0 20.35 0.22211 37 0.49357 37s3.534-3.0815 7.25-6.8479c7.354-7.4535 15.825-12.223 25.331-14.262 7.5462-1.6184 23.949-0.5679 31.246 2.001 26.603 9.3658 41.68 35.404 41.68 71.984 0 20.285-4.2414 38.603-12.283 53.049-4.2661 7.6633-16.859 20.081-23.717 23.387-12.412 5.9832-30.553 8.2971-41.5 5.2934-10.083-2.7665-14.75-5.5416-22.168-13.179l-7.2533-7.4682-0.28925 8.7716-0.28925 8.7716h-11.5-11.5l-0.5-102-0.5-102-2.6366 5.5c-1.4502 3.025-8.1316 17.425-14.848 32-6.7161 14.575-14.135 30.55-16.487 35.5-2.3517 4.95-13.167 28.35-24.033 52s-22.623 49.014-26.127 56.364c-3.5031 7.3502-6.3693 13.505-6.3693 13.677 0 0.17212-1.5741 3.7208-3.498 7.886l-3.498 7.573h-126.03-126.03l1.4076-2.75zm428.77-23.95c5.8784-2.64 11.857-8.0351 15.92-14.367 12.418-19.352 12.703-63.508 0.52586-81.433-8.8408-13.014-27.298-18.732-43.572-13.5-19.323 6.2132-28.433 25.13-28.414 58.999 0.01 16.62 1.0968 22.377 6.1068 32.338 4.2622 8.4737 13.995 16.393 24.311 19.781 4.7085 1.5465 20.113 0.432 25.122-1.8175zm121.95 23.676c-30.864-6.5086-50.012-29.237-53.176-63.118-3.0319-32.472 6.5104-63.029 24.427-78.223 12.093-10.255 24.203-14.617 42.674-15.369 10.837-0.44118 13.601-0.21134 20.775 1.7276 19.219 5.1944 31.637 18.89 37.125 40.944 1.1552 4.6422 2.1003 9.0436 2.1003 9.7808 0 1.0621-2.5118 1.2821-12.1 1.0596l-12.1-0.28078-2.412-7.6552c-5.1908-16.475-18.53-25.045-36.622-23.528-13.772 1.1546-24.294 8.7731-31.264 22.636-8.6732 17.251-8.6128 52.806 0.11941 70.249 4.4732 8.9356 8.0628 12.815 15.593 16.85 5.628 3.0162 7.2958 3.4105 15.949 3.7709 8.6736 0.36128 10.223 0.14658 15.12-2.0955 10.425-4.7725 17.154-12.888 21.331-25.728l2.115-6.5 12.186-0.28119 12.186-0.28119-0.67703 3.7812c-1.3055 7.2914-5.1932 18.173-8.7341 24.448-7.4748 13.245-17.457 21.463-31.45 25.892-7.651 2.4214-25.803 3.4718-33.166 1.9191z"/>
</svg>
