<?xml version="1.0" encoding="UTF-8" standalone="no"?>
<!-- Created with Inkscape (http://www.inkscape.org/) -->
<svg id="svg2" xmlns:rdf="http://www.w3.org/1999/02/22-rdf-syntax-ns#" xmlns="http://www.w3.org/2000/svg" height="2e3" viewBox="0 0 1952 2000" width="1952" version="1.1" xmlns:cc="http://creativecommons.org/ns#" xmlns:dc="http://purl.org/dc/elements/1.1/">
 <metadata id="metadata8">
  <rdf:RDF>
   <cc:Work rdf:about="">
    <dc:format>image/svg+xml</dc:format>
    <dc:type rdf:resource="http://purl.org/dc/dcmitype/StillImage"/>
    <dc:title/>
   </cc:Work>
  </rdf:RDF>
 </metadata>
 <path id="path4138" d="m230.24 1310.6c-0.3664-261.11-0.6663-600.86-0.6663-755l-0.0001-280.25h166.5 166.5v599.5 599.5h390 390v-18-18h-370-370v-155.5-155.5h532.5 532.5v2.5c0 2.1905 0.4333 2.5 3.5 2.5h3.5v326.5 326.5h-721.83-721.83l-0.6662-474.75zm370.8-221.5c-0.2619-0.6892-0.3608-93.503-0.2198-206.25l0.2565-205h166 166v206 206l-165.78 0.253c-132.1 0.2015-165.88 0-166.26-1zm371 0c-0.2619-0.6892-0.3608-93.503-0.2198-206.25l0.2565-205h166 166v206 206l-165.78 0.253c-132.1 0.2015-165.88 0-166.26-1zm371.2 0.5803c-0.3667-0.3666-0.6667-183.74-0.6667-407.5v-406.83h166 166v407.5 407.5h-165.33c-90.933 0-165.63-0.3-166-0.6667z"/>
</svg>
